<svg id="svg" version="1.1" xmlns="http://www.w3.org/2000/svg" xmlns:xlink="http://www.w3.org/1999/xlink" width="400" height="400" viewBox="0, 0, 400,400"><g id="svgg"><path id="path0" d="M141.200 35.200 C 141.200 35.449,138.933 35.600,135.200 35.600 C 131.467 35.600,129.200 35.751,129.200 36.000 C 129.200 36.226,128.067 36.400,126.600 36.400 C 125.133 36.400,124.000 36.574,124.000 36.800 C 124.000 37.020,123.010 37.200,121.800 37.200 C 120.590 37.200,119.600 37.380,119.600 37.600 C 119.600 37.820,118.790 38.000,117.800 38.000 C 116.810 38.000,116.000 38.180,116.000 38.400 C 116.000 38.620,115.190 38.800,114.200 38.800 C 113.210 38.800,112.400 38.980,112.400 39.200 C 112.400 39.420,111.770 39.600,111.000 39.600 C 110.230 39.600,109.600 39.780,109.600 40.000 C 109.600 40.220,108.970 40.400,108.200 40.400 C 107.430 40.400,106.800 40.580,106.800 40.800 C 106.800 41.020,106.440 41.200,106.000 41.200 C 105.560 41.200,105.200 41.373,105.200 41.585 C 105.200 41.810,104.077 41.902,102.500 41.806 C 101.015 41.716,100.205 41.735,100.700 41.849 C 102.987 42.374,101.455 42.891,98.400 42.624 C 95.548 42.375,95.200 42.419,95.200 43.024 C 95.200 43.588,94.938 43.660,93.642 43.453 C 92.434 43.260,92.030 43.346,91.842 43.834 C 91.665 44.295,91.293 44.396,90.451 44.211 C 89.633 44.031,89.236 44.129,89.075 44.548 C 88.934 44.916,88.538 45.057,88.024 44.922 C 87.555 44.800,87.200 44.899,87.200 45.153 C 87.200 45.399,86.660 45.600,86.000 45.600 C 85.340 45.600,84.800 45.780,84.800 46.000 C 84.800 46.220,84.440 46.400,84.000 46.400 C 83.560 46.400,83.200 46.580,83.200 46.800 C 83.200 47.020,82.840 47.200,82.400 47.200 C 81.960 47.200,81.600 47.380,81.600 47.600 C 81.600 47.820,81.330 48.000,81.000 48.000 C 80.670 48.000,80.400 48.180,80.400 48.400 C 80.400 48.620,80.040 48.800,79.600 48.800 C 79.160 48.800,78.800 48.980,78.800 49.200 C 78.800 49.420,78.440 49.600,78.000 49.600 C 77.560 49.600,77.200 49.799,77.200 50.043 C 77.200 50.286,76.939 50.386,76.620 50.263 C 76.233 50.115,76.115 50.233,76.263 50.620 C 76.386 50.939,76.286 51.200,76.043 51.200 C 75.799 51.200,75.595 50.975,75.588 50.700 C 75.581 50.425,75.370 50.554,75.120 50.986 C 74.464 52.116,72.913 53.600,72.387 53.600 C 72.140 53.600,71.246 54.320,70.400 55.200 C 69.554 56.080,68.658 56.800,68.408 56.800 C 68.158 56.800,66.268 58.529,64.208 60.643 C 61.770 63.146,60.292 64.380,59.970 64.182 C 59.651 63.984,59.578 64.041,59.765 64.344 C 59.936 64.620,59.390 65.449,58.427 66.374 C 57.532 67.234,56.800 68.146,56.800 68.400 C 56.800 68.654,56.080 69.554,55.200 70.400 C 54.320 71.246,53.600 72.182,53.600 72.480 C 53.600 72.779,53.240 73.283,52.800 73.600 C 52.360 73.917,52.000 74.516,52.000 74.931 C 52.000 75.426,51.800 75.609,51.420 75.463 C 51.052 75.322,50.915 75.433,51.043 75.769 C 51.155 76.059,50.954 76.409,50.598 76.546 C 50.241 76.682,50.061 76.976,50.198 77.197 C 50.335 77.419,50.257 77.600,50.024 77.600 C 49.791 77.600,49.600 77.870,49.600 78.200 C 49.600 78.530,49.420 78.800,49.200 78.800 C 48.980 78.800,48.800 79.036,48.800 79.325 C 48.800 79.613,48.440 80.236,48.000 80.708 C 47.560 81.180,47.200 81.754,47.200 81.983 C 47.200 82.212,47.020 82.400,46.800 82.400 C 46.580 82.400,46.400 82.760,46.400 83.200 C 46.400 83.640,46.199 84.000,45.953 84.000 C 45.704 84.000,45.599 84.353,45.716 84.800 C 45.857 85.341,45.728 85.600,45.316 85.600 C 44.904 85.600,44.774 85.859,44.916 86.400 C 45.057 86.941,44.928 87.200,44.516 87.200 C 44.104 87.200,43.974 87.459,44.116 88.000 C 44.255 88.533,44.128 88.800,43.736 88.800 C 43.328 88.800,43.224 89.047,43.400 89.600 C 43.583 90.177,43.472 90.400,43.000 90.400 C 42.513 90.400,42.416 90.619,42.619 91.261 C 42.832 91.930,42.756 92.069,42.279 91.886 C 41.931 91.752,41.568 91.908,41.438 92.246 C 41.309 92.582,41.381 92.735,41.605 92.597 C 41.822 92.463,42.000 92.633,42.000 92.976 C 42.000 93.319,41.820 93.600,41.600 93.600 C 41.380 93.600,41.200 93.960,41.200 94.400 C 41.200 94.840,41.020 95.200,40.800 95.200 C 40.580 95.200,40.400 95.560,40.400 96.000 C 40.400 96.440,40.220 96.800,40.000 96.800 C 39.780 96.800,39.600 97.250,39.600 97.800 C 39.600 98.350,39.420 98.800,39.200 98.800 C 38.980 98.800,38.800 99.340,38.800 100.000 C 38.800 100.660,38.620 101.200,38.400 101.200 C 38.180 101.200,38.000 101.740,38.000 102.400 C 38.000 103.060,37.820 103.600,37.600 103.600 C 37.380 103.600,37.200 104.050,37.200 104.600 C 37.200 105.150,37.020 105.600,36.800 105.600 C 36.580 105.600,36.400 106.230,36.400 107.000 C 36.400 107.770,36.220 108.400,36.000 108.400 C 35.780 108.400,35.600 108.940,35.600 109.600 C 35.600 110.260,35.420 110.800,35.200 110.800 C 34.980 110.800,34.800 111.353,34.800 112.029 C 34.800 112.704,34.546 113.511,34.236 113.822 C 33.921 114.137,33.769 114.761,33.893 115.234 C 34.015 115.700,33.954 116.198,33.757 116.341 C 33.116 116.806,32.372 118.400,32.797 118.400 C 33.018 118.400,33.200 118.760,33.200 119.200 C 33.200 119.640,33.020 120.000,32.800 120.000 C 32.580 120.000,32.400 120.720,32.400 121.600 C 32.400 122.480,32.220 123.200,32.000 123.200 C 31.780 123.200,31.600 124.100,31.600 125.200 C 31.600 126.300,31.420 127.200,31.200 127.200 C 30.974 127.200,30.800 128.333,30.800 129.800 C 30.800 131.250,30.625 132.400,30.404 132.400 C 30.172 132.400,30.031 133.660,30.065 135.438 C 30.097 137.109,29.949 138.594,29.736 138.738 C 29.218 139.090,29.101 163.600,29.618 163.600 C 29.834 163.600,30.000 165.256,30.000 167.400 C 30.000 169.667,30.161 171.200,30.400 171.200 C 30.631 171.200,30.800 172.467,30.800 174.200 C 30.800 175.933,30.969 177.200,31.200 177.200 C 31.429 177.200,31.600 178.400,31.600 180.000 C 31.600 181.600,31.771 182.800,32.000 182.800 C 32.220 182.800,32.400 183.790,32.400 185.000 C 32.400 186.210,32.580 187.200,32.800 187.200 C 33.381 187.200,33.292 189.096,32.700 189.335 C 32.300 189.496,32.300 189.543,32.700 189.568 C 32.975 189.586,33.200 189.960,33.200 190.400 C 33.200 190.840,33.380 191.200,33.600 191.200 C 33.820 191.200,34.000 192.010,34.000 193.000 C 34.000 193.990,34.180 194.800,34.400 194.800 C 34.620 194.800,34.800 195.520,34.800 196.400 C 34.800 197.280,34.980 198.000,35.200 198.000 C 35.420 198.000,35.600 198.720,35.600 199.600 C 35.600 200.509,35.792 201.200,36.045 201.200 C 36.316 201.200,36.419 201.686,36.309 202.437 C 36.191 203.240,36.316 203.746,36.664 203.880 C 36.985 204.003,37.200 204.710,37.200 205.643 C 37.200 206.499,37.380 207.200,37.600 207.200 C 37.820 207.200,38.000 207.830,38.000 208.600 C 38.000 209.370,38.180 210.000,38.400 210.000 C 38.620 210.000,38.800 210.630,38.800 211.400 C 38.800 212.170,38.980 212.800,39.200 212.800 C 39.420 212.800,39.600 213.340,39.600 214.000 C 39.600 214.660,39.780 215.200,40.000 215.200 C 40.220 215.200,40.400 215.830,40.400 216.600 C 40.400 217.370,40.580 218.000,40.800 218.000 C 41.020 218.000,41.200 218.540,41.200 219.200 C 41.200 219.860,41.391 220.400,41.624 220.400 C 41.871 220.400,41.969 220.903,41.859 221.602 C 41.754 222.264,41.821 222.711,42.007 222.596 C 42.481 222.303,42.987 223.233,42.523 223.545 C 42.315 223.685,42.274 224.250,42.432 224.800 C 42.629 225.484,42.733 225.572,42.760 225.076 C 42.783 224.665,42.987 224.468,43.232 224.620 C 43.470 224.767,43.557 225.318,43.425 225.844 C 43.251 226.538,43.351 226.800,43.792 226.800 C 44.469 226.800,44.610 227.423,44.017 227.789 C 43.509 228.103,43.948 229.199,44.538 229.087 C 44.804 229.037,44.947 229.381,44.875 229.900 C 44.806 230.395,44.941 230.800,45.175 230.800 C 45.409 230.800,45.600 231.250,45.600 231.800 C 45.600 232.350,45.780 232.800,46.000 232.800 C 46.220 232.800,46.400 233.160,46.400 233.600 C 46.400 234.040,46.580 234.400,46.800 234.400 C 47.020 234.400,47.200 234.850,47.200 235.400 C 47.200 235.950,47.380 236.400,47.600 236.400 C 47.820 236.400,48.000 236.850,48.000 237.400 C 48.000 237.950,48.180 238.400,48.400 238.400 C 48.620 238.400,48.800 238.760,48.800 239.200 C 48.800 239.640,48.999 240.000,49.243 240.000 C 49.486 240.000,49.579 240.277,49.450 240.615 C 49.315 240.965,49.469 241.328,49.807 241.458 C 50.527 241.734,50.599 242.789,49.900 242.827 C 49.625 242.842,49.805 243.049,50.300 243.288 C 50.795 243.527,51.200 244.055,51.200 244.461 C 51.200 244.868,51.380 245.200,51.600 245.200 C 51.820 245.200,52.000 245.560,52.000 246.000 C 52.000 246.440,52.180 246.800,52.400 246.800 C 52.620 246.800,52.800 247.250,52.800 247.800 C 52.800 248.350,52.980 248.800,53.200 248.800 C 53.420 248.800,53.600 249.160,53.600 249.600 C 53.600 250.040,53.780 250.400,54.000 250.400 C 54.220 250.400,54.400 250.760,54.400 251.200 C 54.400 251.640,54.580 252.000,54.800 252.000 C 55.020 252.000,55.200 252.270,55.200 252.600 C 55.200 252.930,55.380 253.200,55.600 253.200 C 55.820 253.200,56.000 253.560,56.000 254.000 C 56.000 254.440,56.180 254.800,56.400 254.800 C 56.620 254.800,56.800 255.160,56.800 255.600 C 56.800 256.040,56.980 256.400,57.200 256.400 C 57.420 256.400,57.600 256.760,57.600 257.200 C 57.600 257.640,57.780 258.000,58.000 258.000 C 58.220 258.000,58.400 258.360,58.400 258.800 C 58.400 259.240,58.576 259.600,58.790 259.600 C 59.005 259.600,59.093 260.185,58.986 260.900 C 58.879 261.615,58.899 261.975,59.029 261.700 C 59.419 260.879,60.075 261.134,59.800 262.000 C 59.617 262.577,59.728 262.800,60.200 262.800 C 60.693 262.800,60.786 263.021,60.577 263.700 C 60.425 264.195,60.428 264.480,60.584 264.333 C 60.970 263.969,62.300 265.290,62.108 265.848 C 62.023 266.095,62.231 266.403,62.570 266.533 C 62.926 266.670,63.087 267.029,62.950 267.385 C 62.821 267.723,62.914 268.000,63.157 268.000 C 63.401 268.000,63.600 268.360,63.600 268.800 C 63.600 269.240,63.780 269.600,64.000 269.600 C 64.220 269.600,64.400 269.960,64.400 270.400 C 64.400 270.840,64.599 271.200,64.843 271.200 C 65.086 271.200,65.186 271.461,65.063 271.780 C 64.915 272.167,65.033 272.285,65.420 272.137 C 65.814 271.986,66.000 272.186,66.000 272.757 C 66.000 273.221,66.180 273.600,66.400 273.600 C 66.620 273.600,66.800 273.960,66.800 274.400 C 66.800 274.840,66.980 275.200,67.200 275.200 C 67.420 275.200,67.600 275.520,67.600 275.912 C 67.600 276.303,67.960 276.883,68.400 277.200 C 68.840 277.517,69.200 278.097,69.200 278.488 C 69.200 278.880,69.380 279.200,69.600 279.200 C 69.820 279.200,70.000 279.520,70.000 279.912 C 70.000 280.303,70.360 280.883,70.800 281.200 C 71.240 281.517,71.600 282.057,71.600 282.400 C 71.600 282.743,71.960 283.283,72.400 283.600 C 72.840 283.917,73.200 284.407,73.200 284.688 C 73.200 284.970,73.380 285.200,73.600 285.200 C 73.820 285.200,74.000 285.638,74.000 286.173 C 74.000 286.809,74.290 287.238,74.837 287.412 C 75.414 287.595,75.611 287.913,75.474 288.439 C 75.364 288.857,75.393 289.206,75.537 289.213 C 76.410 289.255,77.369 290.448,76.809 290.794 C 76.320 291.097,76.353 291.207,77.011 291.456 C 78.122 291.877,78.693 292.520,78.493 293.122 C 78.398 293.406,78.699 293.965,79.160 294.366 C 79.622 294.766,80.000 295.348,80.000 295.659 C 80.000 295.969,80.360 296.483,80.800 296.800 C 81.240 297.117,81.600 297.657,81.600 298.000 C 81.600 298.343,81.960 298.883,82.400 299.200 C 82.840 299.517,83.200 299.924,83.200 300.105 C 83.200 300.286,83.560 300.820,84.000 301.292 C 84.440 301.764,84.800 302.465,84.800 302.848 C 84.800 303.232,85.160 303.660,85.600 303.800 C 86.040 303.940,86.400 304.362,86.400 304.739 C 86.400 305.115,86.760 305.683,87.200 306.000 C 87.640 306.317,88.000 307.017,88.000 307.555 C 88.000 308.093,88.109 308.424,88.242 308.291 C 88.554 307.979,90.400 309.813,90.400 310.435 C 90.400 310.694,90.766 311.224,91.214 311.612 C 91.661 312.000,91.976 312.497,91.914 312.715 C 91.851 312.934,92.222 313.483,92.737 313.935 C 93.252 314.388,93.555 314.948,93.411 315.182 C 93.121 315.652,94.093 316.800,94.781 316.800 C 95.023 316.800,95.320 317.300,95.442 317.911 C 95.575 318.575,96.135 319.292,96.832 319.693 C 97.628 320.149,98.000 320.678,98.000 321.354 C 98.000 322.006,98.284 322.436,98.829 322.609 C 99.310 322.762,99.570 323.100,99.449 323.416 C 99.307 323.786,99.447 323.880,99.890 323.710 C 100.372 323.525,100.474 323.630,100.286 324.119 C 100.148 324.481,100.296 325.039,100.617 325.360 C 100.938 325.681,101.200 326.276,101.200 326.683 C 101.200 327.090,101.560 327.683,102.000 328.000 C 102.440 328.317,102.800 328.825,102.800 329.128 C 102.800 329.431,103.340 330.183,104.000 330.800 C 104.660 331.417,105.200 332.169,105.200 332.472 C 105.200 332.775,105.560 333.283,106.000 333.600 C 106.440 333.917,106.800 334.497,106.800 334.888 C 106.800 335.280,106.973 335.600,107.184 335.600 C 107.828 335.600,109.233 337.338,109.025 337.878 C 108.766 338.554,111.648 341.297,112.803 341.473 C 113.694 341.609,115.200 342.983,115.200 343.661 C 115.200 343.848,115.520 344.000,115.912 344.000 C 116.303 344.000,116.883 344.360,117.200 344.800 C 117.517 345.240,118.097 345.600,118.488 345.600 C 118.880 345.600,119.200 345.780,119.200 346.000 C 119.200 346.220,119.520 346.400,119.912 346.400 C 120.303 346.400,120.883 346.760,121.200 347.200 C 121.517 347.640,122.097 348.000,122.488 348.000 C 122.880 348.000,123.200 348.180,123.200 348.400 C 123.200 348.620,123.520 348.800,123.912 348.800 C 124.303 348.800,124.883 349.160,125.200 349.600 C 125.517 350.040,126.097 350.400,126.488 350.400 C 126.880 350.400,127.200 350.580,127.200 350.800 C 127.200 351.020,127.494 351.200,127.853 351.200 C 128.212 351.200,128.833 351.577,129.232 352.037 C 129.631 352.497,130.148 352.756,130.382 352.611 C 130.615 352.467,130.914 352.631,131.046 352.975 C 131.178 353.319,131.536 353.600,131.843 353.600 C 132.149 353.600,132.400 353.780,132.400 354.000 C 132.400 354.220,132.760 354.400,133.200 354.400 C 133.640 354.400,134.000 354.580,134.000 354.800 C 134.000 355.020,134.360 355.200,134.800 355.200 C 135.240 355.200,135.600 355.392,135.600 355.627 C 135.600 355.872,135.941 355.946,136.400 355.800 C 136.977 355.617,137.200 355.728,137.200 356.200 C 137.200 356.672,137.423 356.783,138.000 356.600 C 138.577 356.417,138.800 356.528,138.800 357.000 C 138.800 357.472,139.023 357.583,139.600 357.400 C 140.185 357.214,140.400 357.328,140.400 357.823 C 140.400 358.362,140.645 358.451,141.600 358.260 C 142.277 358.125,142.800 358.190,142.800 358.410 C 142.800 358.625,143.340 358.800,144.000 358.800 C 144.660 358.800,145.200 358.980,145.200 359.200 C 145.200 359.420,145.920 359.600,146.800 359.600 C 147.680 359.600,148.400 359.780,148.400 360.000 C 148.400 360.222,149.467 360.400,150.800 360.400 C 152.133 360.400,153.200 360.578,153.200 360.800 C 153.200 361.052,155.867 361.200,160.400 361.200 C 164.933 361.200,167.600 361.052,167.600 360.800 C 167.600 360.574,168.733 360.400,170.200 360.400 C 171.667 360.400,172.800 360.226,172.800 360.000 C 172.800 359.780,173.610 359.600,174.600 359.600 C 175.590 359.600,176.400 359.420,176.400 359.200 C 176.400 358.980,177.030 358.800,177.800 358.800 C 178.570 358.800,179.200 358.600,179.200 358.355 C 179.200 358.064,179.681 358.001,180.594 358.172 C 181.784 358.396,181.951 358.337,181.734 357.772 C 181.519 357.211,181.672 357.152,182.740 357.387 C 183.828 357.626,183.963 357.569,183.732 356.967 C 183.518 356.409,183.632 356.315,184.307 356.492 C 184.819 356.626,185.231 356.497,185.359 356.163 C 185.475 355.861,185.847 355.720,186.185 355.850 C 186.592 356.006,186.800 355.852,186.800 355.396 C 186.800 354.921,187.031 354.767,187.544 354.901 C 188.011 355.023,188.542 354.758,188.967 354.191 C 189.408 353.605,189.919 353.358,190.423 353.490 C 190.850 353.602,191.200 353.495,191.200 353.253 C 191.200 353.011,192.550 351.463,194.200 349.813 C 195.850 348.163,197.200 346.540,197.200 346.206 C 197.200 345.873,197.380 345.600,197.600 345.600 C 197.820 345.600,198.000 345.240,198.000 344.800 C 198.000 344.300,198.267 344.000,198.712 344.000 C 199.103 344.000,199.683 344.360,200.000 344.800 C 200.317 345.240,200.897 345.600,201.288 345.600 C 201.680 345.600,202.000 345.780,202.000 346.000 C 202.000 346.220,202.360 346.400,202.800 346.400 C 203.240 346.400,203.600 346.580,203.600 346.800 C 203.600 347.020,203.960 347.200,204.400 347.200 C 204.840 347.200,205.200 347.380,205.200 347.600 C 205.200 347.820,205.560 348.000,206.000 348.000 C 206.440 348.000,206.800 348.180,206.800 348.400 C 206.800 348.620,207.160 348.800,207.600 348.800 C 208.040 348.800,208.400 348.980,208.400 349.200 C 208.400 349.420,208.850 349.600,209.400 349.600 C 209.950 349.600,210.400 349.780,210.400 350.000 C 210.400 350.220,211.030 350.400,211.800 350.400 C 212.570 350.400,213.200 350.580,213.200 350.800 C 213.200 351.020,214.100 351.200,215.200 351.200 C 216.300 351.200,217.200 351.380,217.200 351.600 C 217.200 351.844,219.067 352.000,222.000 352.000 C 224.933 352.000,226.800 352.156,226.800 352.400 C 226.800 352.633,228.133 352.800,230.000 352.800 C 231.867 352.800,233.200 352.633,233.200 352.400 C 233.200 352.174,234.333 352.000,235.800 352.000 C 237.267 352.000,238.400 351.826,238.400 351.600 C 238.400 351.380,238.940 351.200,239.600 351.200 C 240.260 351.200,240.800 351.020,240.800 350.800 C 240.800 350.580,241.160 350.400,241.600 350.400 C 242.040 350.400,242.400 350.220,242.400 350.000 C 242.400 349.780,242.673 349.600,243.007 349.600 C 243.799 349.600,248.800 344.599,248.800 343.807 C 248.800 343.473,248.980 343.200,249.200 343.200 C 249.420 343.200,249.600 342.660,249.600 342.000 C 249.600 341.340,249.780 340.800,250.000 340.800 C 250.220 340.800,250.400 339.900,250.400 338.800 C 250.400 336.869,250.969 336.133,251.464 337.423 C 251.596 337.766,251.950 337.951,252.252 337.836 C 252.574 337.712,252.800 337.886,252.800 338.259 C 252.800 338.696,253.048 338.828,253.600 338.684 C 254.133 338.545,254.400 338.672,254.400 339.064 C 254.400 339.472,254.647 339.576,255.202 339.399 C 255.744 339.227,256.086 339.358,256.256 339.802 C 256.433 340.263,256.792 340.388,257.454 340.222 C 258.435 339.976,258.779 340.553,257.900 340.971 C 257.625 341.101,257.985 341.121,258.700 341.014 C 259.415 340.907,260.000 340.995,260.000 341.210 C 260.000 341.425,260.540 341.600,261.200 341.600 C 261.860 341.600,262.400 341.780,262.400 342.000 C 262.400 342.220,262.760 342.400,263.200 342.400 C 263.640 342.400,264.000 342.580,264.000 342.800 C 264.000 343.020,264.540 343.200,265.200 343.200 C 265.860 343.200,266.400 343.380,266.400 343.600 C 266.400 343.820,266.940 344.000,267.600 344.000 C 268.260 344.000,268.800 344.180,268.800 344.400 C 268.800 344.620,269.430 344.800,270.200 344.800 C 270.970 344.800,271.600 344.980,271.600 345.200 C 271.600 345.426,272.733 345.600,274.200 345.600 C 275.667 345.600,276.800 345.774,276.800 346.000 C 276.800 346.231,278.067 346.400,279.800 346.400 C 281.533 346.400,282.800 346.231,282.800 346.000 C 282.800 345.764,284.208 345.600,286.224 345.600 C 288.404 345.600,289.557 345.455,289.400 345.200 C 289.248 344.953,289.929 344.800,291.176 344.800 C 292.289 344.800,293.200 344.620,293.200 344.400 C 293.200 344.180,293.830 344.000,294.600 344.000 C 295.370 344.000,296.000 343.820,296.000 343.600 C 296.000 343.380,296.450 343.200,297.000 343.200 C 297.550 343.200,298.000 343.020,298.000 342.800 C 298.000 342.580,298.416 342.400,298.925 342.400 C 299.433 342.400,300.233 342.042,300.703 341.604 C 301.173 341.167,301.814 340.907,302.127 341.027 C 302.440 341.148,302.809 340.954,302.946 340.598 C 303.086 340.232,303.397 340.074,303.659 340.236 C 303.959 340.422,304.015 340.348,303.818 340.029 C 303.512 339.533,305.396 337.200,306.103 337.200 C 306.784 337.200,307.595 336.054,307.356 335.430 C 307.195 335.011,307.339 334.800,307.784 334.800 C 308.272 334.800,308.385 334.583,308.200 334.000 C 308.054 333.541,308.128 333.200,308.373 333.200 C 308.608 333.200,308.800 332.840,308.800 332.400 C 308.800 331.960,308.980 331.600,309.200 331.600 C 309.420 331.600,309.600 331.240,309.600 330.800 C 309.600 330.360,309.780 330.000,310.000 330.000 C 310.220 330.000,310.400 329.460,310.400 328.800 C 310.400 328.140,310.580 327.600,310.800 327.600 C 311.043 327.600,311.200 325.800,311.200 323.000 L 311.200 318.400 314.000 318.400 C 315.600 318.400,316.800 318.229,316.800 318.000 C 316.800 317.765,318.200 317.600,320.200 317.600 C 322.200 317.600,323.600 317.435,323.600 317.200 C 323.600 316.980,324.590 316.800,325.800 316.800 C 327.010 316.800,328.000 316.620,328.000 316.400 C 328.000 316.180,328.911 316.000,330.024 316.000 C 331.271 316.000,331.952 315.847,331.800 315.600 C 331.653 315.362,332.129 315.200,332.976 315.200 C 333.759 315.200,334.400 315.020,334.400 314.800 C 334.400 314.580,334.940 314.400,335.600 314.400 C 336.260 314.400,336.800 314.220,336.800 314.000 C 336.800 313.780,337.250 313.600,337.800 313.600 C 338.350 313.600,338.800 313.420,338.800 313.200 C 338.800 312.980,339.250 312.800,339.800 312.800 C 340.350 312.800,340.800 312.620,340.800 312.400 C 340.800 312.180,341.160 312.000,341.600 312.000 C 342.040 312.000,342.400 311.820,342.400 311.600 C 342.400 311.380,342.760 311.200,343.200 311.200 C 343.640 311.200,344.000 311.020,344.000 310.800 C 344.000 310.580,344.540 310.400,345.200 310.400 C 345.860 310.400,346.400 310.220,346.400 310.000 C 346.400 309.780,346.760 309.600,347.200 309.600 C 347.640 309.600,348.000 309.420,348.000 309.200 C 348.000 308.980,348.350 308.800,348.777 308.800 C 349.205 308.800,349.820 308.420,350.145 307.957 C 350.505 307.444,350.930 307.233,351.230 307.418 C 351.547 307.615,351.622 307.559,351.438 307.262 C 351.268 306.987,351.409 306.800,351.787 306.800 C 352.649 306.800,355.999 303.395,356.006 302.511 C 356.011 301.902,356.071 301.886,356.418 302.400 C 356.725 302.854,356.767 302.751,356.589 301.980 C 356.402 301.169,356.560 300.849,357.363 300.420 C 357.918 300.123,358.280 299.729,358.166 299.545 C 358.052 299.361,358.328 298.814,358.780 298.330 C 359.231 297.845,359.600 297.033,359.600 296.525 C 359.600 296.016,359.780 295.600,360.000 295.600 C 360.220 295.600,360.400 295.240,360.400 294.800 C 360.400 294.360,360.580 294.000,360.800 294.000 C 361.020 294.000,361.200 293.627,361.200 293.171 C 361.200 292.716,361.462 292.081,361.783 291.760 C 362.104 291.439,362.264 290.912,362.140 290.588 C 362.016 290.265,362.114 290.000,362.357 290.000 C 362.601 290.000,362.800 289.370,362.800 288.600 C 362.800 287.830,362.980 287.200,363.200 287.200 C 363.422 287.200,363.600 286.133,363.600 284.800 C 363.600 283.480,363.778 282.400,363.996 282.400 C 364.213 282.400,364.355 281.963,364.311 281.429 C 364.266 280.895,364.088 280.545,363.915 280.652 C 363.742 280.760,363.600 278.947,363.600 276.624 C 363.600 274.075,363.441 272.400,363.200 272.400 C 362.980 272.400,362.800 271.590,362.800 270.600 C 362.800 269.610,362.620 268.800,362.400 268.800 C 362.180 268.800,362.000 268.350,362.000 267.800 C 362.000 267.250,361.820 266.800,361.600 266.800 C 361.380 266.800,361.200 266.525,361.200 266.189 C 361.200 265.854,360.390 264.769,359.400 263.779 C 358.410 262.789,357.597 261.759,357.594 261.489 C 357.589 261.123,357.506 261.129,357.262 261.514 C 356.861 262.145,355.600 261.723,355.600 260.957 C 355.600 260.651,355.319 260.400,354.976 260.400 C 354.633 260.400,354.463 260.222,354.597 260.005 C 354.737 259.778,354.577 259.711,354.224 259.846 C 353.871 259.982,353.509 259.828,353.378 259.486 C 353.240 259.127,352.839 258.969,352.374 259.091 C 351.948 259.202,351.600 259.092,351.600 258.847 C 351.600 258.601,351.330 258.400,351.000 258.400 C 350.670 258.400,350.400 258.220,350.400 258.000 C 350.400 257.780,350.130 257.600,349.800 257.600 C 349.470 257.600,349.200 257.420,349.200 257.200 C 349.200 256.980,348.970 256.800,348.688 256.800 C 348.407 256.800,347.917 256.440,347.600 256.000 C 347.283 255.560,346.743 255.200,346.400 255.200 C 346.057 255.200,345.517 254.840,345.200 254.400 C 344.883 253.960,344.343 253.600,344.000 253.600 C 343.657 253.600,343.117 253.240,342.800 252.800 C 342.483 252.360,341.943 252.000,341.600 252.000 C 341.257 252.000,340.717 251.640,340.400 251.200 C 340.083 250.760,339.569 250.400,339.259 250.400 C 338.670 250.400,337.200 248.928,337.200 248.339 C 337.200 248.152,336.762 248.000,336.227 248.000 C 335.626 248.000,335.163 247.712,335.015 247.248 C 334.884 246.834,334.278 246.396,333.670 246.274 C 333.034 246.147,332.326 245.610,332.006 245.012 C 331.695 244.431,331.173 244.026,330.824 244.097 C 330.481 244.166,329.357 243.363,328.326 242.312 C 327.295 241.260,326.247 240.400,325.997 240.400 C 325.268 240.400,324.323 239.249,324.636 238.741 C 324.814 238.454,324.749 238.384,324.468 238.558 C 323.900 238.909,321.281 236.356,321.509 235.673 C 321.667 235.198,318.525 232.000,317.900 232.000 C 317.735 232.000,317.600 231.550,317.600 231.000 C 317.600 230.450,317.448 230.000,317.261 230.000 C 316.586 230.000,315.154 228.448,315.094 227.651 C 315.060 227.202,314.961 226.906,314.874 226.993 C 314.606 227.261,312.800 225.270,312.800 224.706 C 312.800 224.415,312.440 223.917,312.000 223.600 C 311.560 223.283,311.200 222.703,311.200 222.312 C 311.200 221.920,311.020 221.600,310.800 221.600 C 310.580 221.600,310.400 221.280,310.400 220.888 C 310.400 220.497,310.040 219.917,309.600 219.600 C 309.160 219.283,308.800 218.703,308.800 218.312 C 308.800 217.920,308.601 217.600,308.357 217.600 C 308.114 217.600,308.012 217.345,308.132 217.033 C 308.252 216.721,308.072 216.360,307.733 216.230 C 307.376 216.093,307.217 215.734,307.354 215.376 C 307.489 215.023,307.422 214.863,307.195 215.003 C 306.966 215.145,306.797 214.693,306.794 213.924 C 306.790 213.112,306.665 212.794,306.469 213.102 C 306.252 213.443,305.975 213.156,305.601 212.202 C 305.298 211.431,304.904 210.800,304.725 210.800 C 304.546 210.800,304.400 210.440,304.400 210.000 C 304.400 209.560,304.220 209.200,304.000 209.200 C 303.780 209.200,303.600 208.840,303.600 208.400 C 303.600 207.960,303.420 207.600,303.200 207.600 C 302.980 207.600,302.800 207.276,302.800 206.880 C 302.800 205.986,301.906 204.007,301.500 204.003 C 301.335 204.001,301.200 203.550,301.200 203.000 C 301.200 202.450,301.020 202.000,300.800 202.000 C 300.580 202.000,300.400 201.640,300.400 201.200 C 300.400 200.760,300.220 200.400,300.000 200.400 C 299.780 200.400,299.600 199.950,299.600 199.400 C 299.600 198.850,299.420 198.400,299.200 198.400 C 298.980 198.400,298.800 197.950,298.800 197.400 C 298.800 196.850,298.620 196.400,298.400 196.400 C 298.180 196.400,298.000 195.950,298.000 195.400 C 298.000 194.850,297.820 194.400,297.600 194.400 C 297.380 194.400,297.200 193.860,297.200 193.200 C 297.200 192.540,297.020 192.000,296.800 192.000 C 296.580 192.000,296.400 191.460,296.400 190.800 C 296.400 190.140,296.220 189.600,296.000 189.600 C 295.780 189.600,295.600 188.970,295.600 188.200 C 295.600 187.430,295.420 186.800,295.200 186.800 C 294.980 186.800,294.800 186.260,294.800 185.600 C 294.800 184.940,294.620 184.400,294.400 184.400 C 294.180 184.400,294.000 183.680,294.000 182.800 C 294.000 181.920,293.820 181.200,293.600 181.200 C 293.380 181.200,293.200 180.570,293.200 179.800 C 293.200 179.030,293.020 178.400,292.800 178.400 C 292.580 178.400,292.400 177.770,292.400 177.000 C 292.400 176.230,292.220 175.600,292.000 175.600 C 291.780 175.600,291.600 174.790,291.600 173.800 C 291.600 172.810,291.412 172.000,291.182 172.000 C 290.921 172.000,290.862 171.475,291.026 170.600 C 291.244 169.440,291.171 169.200,290.600 169.200 C 290.034 169.200,289.956 168.959,290.165 167.846 C 290.357 166.821,290.266 166.434,289.790 166.252 C 289.308 166.067,289.223 165.683,289.425 164.605 C 289.637 163.478,289.563 163.200,289.055 163.200 C 288.558 163.200,288.474 162.930,288.668 161.960 C 288.837 161.114,288.740 160.610,288.361 160.376 C 288.029 160.171,287.857 159.542,287.933 158.816 C 288.027 157.919,287.894 157.600,287.425 157.600 C 286.908 157.600,286.838 157.302,287.049 155.982 C 287.249 154.735,287.184 154.391,286.767 154.482 C 286.381 154.566,286.259 154.226,286.343 153.300 C 286.409 152.566,286.273 152.000,286.030 152.000 C 285.794 152.000,285.600 151.280,285.600 150.400 C 285.600 149.520,285.420 148.800,285.200 148.800 C 284.980 148.800,284.800 148.170,284.800 147.400 C 284.800 146.630,284.620 146.000,284.400 146.000 C 284.180 146.000,284.000 145.370,284.000 144.600 C 284.000 143.830,283.820 143.200,283.600 143.200 C 283.380 143.200,283.200 142.570,283.200 141.800 C 283.200 141.030,283.020 140.400,282.800 140.400 C 282.580 140.400,282.400 139.579,282.400 138.576 C 282.400 137.463,282.244 136.849,282.000 137.000 C 281.758 137.149,281.600 136.604,281.600 135.624 C 281.600 134.731,281.420 134.000,281.200 134.000 C 280.980 134.000,280.800 133.280,280.800 132.400 C 280.800 131.520,280.620 130.800,280.400 130.800 C 280.180 130.800,280.000 130.170,280.000 129.400 C 280.000 128.630,279.820 128.000,279.600 128.000 C 279.380 128.000,279.200 127.370,279.200 126.600 C 279.200 125.830,279.020 125.200,278.800 125.200 C 278.580 125.200,278.400 124.660,278.400 124.000 C 278.400 123.340,278.220 122.800,278.000 122.800 C 277.780 122.800,277.600 122.260,277.600 121.600 C 277.600 120.940,277.420 120.400,277.200 120.400 C 276.980 120.400,276.800 119.860,276.800 119.200 C 276.800 118.540,276.620 118.000,276.400 118.000 C 276.180 118.000,276.000 117.550,276.000 117.000 C 276.000 116.450,275.820 116.000,275.600 116.000 C 275.380 116.000,275.200 115.550,275.200 115.000 C 275.200 114.450,275.006 114.000,274.768 114.000 C 274.495 114.000,274.431 113.522,274.592 112.700 C 274.762 111.840,274.722 111.584,274.474 111.943 C 274.202 112.338,274.023 112.360,273.816 112.025 C 273.659 111.772,273.756 111.294,274.031 110.962 C 274.448 110.461,274.384 110.321,273.655 110.130 C 273.016 109.963,272.842 109.697,273.016 109.150 C 273.182 108.625,273.057 108.400,272.600 108.400 C 272.128 108.400,272.017 108.177,272.200 107.600 C 272.346 107.141,272.272 106.800,272.027 106.800 C 271.792 106.800,271.600 106.350,271.600 105.800 C 271.600 105.250,271.420 104.800,271.200 104.800 C 270.980 104.800,270.800 104.350,270.800 103.800 C 270.800 103.250,270.620 102.800,270.400 102.800 C 270.180 102.800,270.000 102.530,270.000 102.200 C 270.000 101.870,269.820 101.600,269.600 101.600 C 269.380 101.600,269.200 101.240,269.200 100.800 C 269.200 100.360,269.020 100.000,268.800 100.000 C 268.580 100.000,268.400 99.640,268.400 99.200 C 268.400 98.760,268.220 98.400,268.000 98.400 C 267.780 98.400,267.600 98.040,267.600 97.600 C 267.600 97.160,267.420 96.800,267.200 96.800 C 266.980 96.800,266.800 96.440,266.800 96.000 C 266.800 95.560,266.620 95.200,266.400 95.200 C 266.180 95.200,266.000 94.840,266.000 94.400 C 266.000 93.960,265.820 93.600,265.600 93.600 C 265.380 93.600,265.200 93.240,265.200 92.800 C 265.200 92.360,265.020 92.000,264.800 92.000 C 264.580 92.000,264.400 91.680,264.400 91.288 C 264.400 90.897,264.040 90.317,263.600 90.000 C 263.160 89.683,262.800 89.103,262.800 88.712 C 262.800 88.320,262.620 88.000,262.400 88.000 C 262.180 88.000,262.000 87.680,262.000 87.288 C 262.000 86.897,261.640 86.317,261.200 86.000 C 260.760 85.683,260.400 85.193,260.400 84.912 C 260.400 84.630,260.220 84.400,260.000 84.400 C 259.780 84.400,259.600 84.016,259.600 83.547 C 259.600 83.078,259.234 82.376,258.786 81.988 C 258.339 81.600,258.024 81.067,258.086 80.804 C 258.149 80.541,257.844 80.117,257.409 79.863 C 256.194 79.152,255.690 78.342,255.918 77.469 C 256.058 76.935,255.975 76.768,255.663 76.961 C 255.408 77.118,255.200 77.057,255.200 76.824 C 255.200 76.591,254.933 76.400,254.608 76.400 C 254.282 76.400,253.892 75.905,253.741 75.300 C 253.590 74.695,252.777 73.593,251.934 72.852 C 251.090 72.110,250.400 71.231,250.400 70.899 C 250.400 70.566,250.073 70.003,249.672 69.647 C 249.272 69.291,248.828 68.685,248.685 68.300 C 248.542 67.915,248.139 67.600,247.789 67.600 C 247.439 67.600,247.264 67.420,247.400 67.200 C 247.536 66.980,247.442 66.800,247.191 66.800 C 246.940 66.800,245.319 65.344,243.588 63.563 C 241.858 61.783,240.275 60.430,240.072 60.556 C 239.685 60.795,237.820 59.140,236.812 57.662 C 236.488 57.188,235.980 56.800,235.683 56.800 C 235.026 56.800,234.000 55.827,234.000 55.205 C 234.000 54.956,233.820 54.864,233.600 55.000 C 233.380 55.136,233.200 55.057,233.200 54.824 C 233.200 54.591,232.880 54.400,232.488 54.400 C 232.097 54.400,231.517 54.040,231.200 53.600 C 230.883 53.160,230.343 52.800,230.000 52.800 C 229.657 52.800,229.117 52.440,228.800 52.000 C 228.483 51.560,227.943 51.200,227.600 51.200 C 227.257 51.200,226.717 50.840,226.400 50.400 C 226.083 49.960,225.503 49.600,225.112 49.600 C 224.720 49.600,224.400 49.420,224.400 49.200 C 224.400 48.980,224.040 48.800,223.600 48.800 C 223.160 48.800,222.800 48.620,222.800 48.400 C 222.800 48.180,222.530 48.000,222.200 48.000 C 221.870 48.000,221.600 47.820,221.600 47.600 C 221.600 47.380,221.280 47.200,220.888 47.200 C 220.497 47.200,219.917 46.840,219.600 46.400 C 219.261 45.930,218.565 45.600,217.912 45.600 C 217.300 45.600,216.800 45.420,216.800 45.200 C 216.800 44.980,216.440 44.800,216.000 44.800 C 215.560 44.800,215.200 44.622,215.200 44.405 C 215.200 44.187,214.795 44.052,214.300 44.105 C 213.767 44.161,213.439 44.001,213.496 43.711 C 213.564 43.367,213.218 43.296,212.329 43.474 C 211.235 43.693,211.102 43.632,211.337 43.019 C 211.566 42.424,211.448 42.351,210.605 42.563 C 209.868 42.748,209.600 42.656,209.600 42.218 C 209.600 41.767,209.305 41.679,208.400 41.860 C 207.636 42.013,207.200 41.937,207.200 41.650 C 207.200 41.403,206.750 41.200,206.200 41.200 C 205.650 41.200,205.200 41.020,205.200 40.800 C 205.200 40.580,204.675 40.400,204.033 40.400 C 203.392 40.400,202.793 40.179,202.703 39.910 C 202.610 39.630,201.994 39.461,201.270 39.516 C 200.571 39.569,200.000 39.430,200.000 39.206 C 200.000 38.983,199.370 38.800,198.600 38.800 C 197.830 38.800,197.200 38.620,197.200 38.400 C 197.200 38.180,196.390 38.000,195.400 38.000 C 194.410 38.000,193.600 37.820,193.600 37.600 C 193.600 37.378,192.533 37.200,191.200 37.200 C 189.867 37.200,188.800 37.022,188.800 36.800 C 188.800 36.567,187.467 36.400,185.600 36.400 C 183.733 36.400,182.400 36.233,182.400 36.000 C 182.400 35.751,180.133 35.600,176.400 35.600 C 172.667 35.600,170.400 35.449,170.400 35.200 C 170.400 34.980,169.680 34.800,168.800 34.800 C 167.920 34.800,167.200 34.980,167.200 35.200 C 167.200 35.447,165.133 35.600,161.800 35.600 C 158.467 35.600,156.400 35.447,156.400 35.200 C 156.400 34.947,153.600 34.800,148.800 34.800 C 144.000 34.800,141.200 34.947,141.200 35.200 M182.000 51.561 C 188.309 52.361,192.056 53.040,195.300 53.970 C 196.125 54.206,197.385 54.562,198.100 54.760 C 213.065 58.902,230.846 70.889,240.343 83.239 C 242.394 85.906,249.200 95.887,249.200 96.228 C 249.200 96.365,249.569 96.995,250.021 97.630 C 250.807 98.734,254.211 105.417,255.915 109.200 C 258.208 114.294,259.000 116.135,260.476 119.800 C 262.594 125.064,263.728 128.471,264.800 132.800 C 264.991 133.570,265.351 134.920,265.600 135.800 C 265.849 136.680,266.221 138.075,266.427 138.900 C 266.632 139.725,266.968 141.075,267.173 141.900 C 267.379 142.725,267.751 144.120,268.000 145.000 C 268.249 145.880,268.621 147.275,268.827 148.100 C 269.032 148.925,269.368 150.275,269.573 151.100 C 269.779 151.925,270.139 153.275,270.373 154.100 C 270.608 154.925,270.965 156.185,271.166 156.900 C 271.966 159.737,274.240 168.285,276.674 177.600 C 278.082 182.990,279.424 188.030,279.655 188.800 C 279.885 189.570,280.168 190.787,280.281 191.504 C 280.395 192.221,280.649 192.906,280.844 193.027 C 281.040 193.148,281.200 193.599,281.200 194.029 C 281.200 194.459,281.358 195.123,281.551 195.505 C 281.744 195.887,282.116 196.920,282.377 197.800 C 282.639 198.680,283.021 199.805,283.226 200.300 C 283.926 201.985,284.325 202.998,284.920 204.600 C 289.323 216.447,298.350 232.231,306.432 242.213 C 313.282 250.674,326.839 261.655,341.200 270.376 C 348.406 274.752,348.169 274.477,348.344 278.673 C 348.474 281.803,348.191 283.656,347.196 286.200 C 345.881 289.561,344.554 291.866,343.100 293.318 C 341.453 294.964,340.870 295.312,336.600 297.200 C 335.500 297.686,334.060 298.323,333.400 298.615 C 326.239 301.780,312.217 303.361,306.600 301.636 C 305.720 301.365,304.550 301.053,304.000 300.942 C 303.450 300.831,302.640 300.587,302.200 300.400 C 301.760 300.213,300.860 299.949,300.200 299.812 C 299.540 299.676,298.370 299.410,297.600 299.222 C 290.265 297.432,286.786 298.388,284.988 302.690 C 283.515 306.217,285.863 312.397,288.677 312.400 C 288.940 312.400,290.274 313.435,291.642 314.700 C 296.512 319.203,297.174 323.672,293.548 327.564 C 291.585 329.670,278.767 331.327,274.628 330.009 C 265.563 327.122,259.490 324.406,254.609 321.056 C 252.321 319.485,248.678 316.979,246.514 315.488 C 241.835 312.263,239.662 311.474,237.142 312.088 C 231.961 313.349,230.081 317.932,232.230 324.062 C 234.400 330.248,235.357 335.802,234.361 336.432 C 232.962 337.318,222.288 336.774,216.642 335.528 C 212.329 334.577,199.923 326.116,196.747 321.960 C 190.966 314.395,178.923 322.559,184.003 330.600 C 188.993 338.499,178.173 345.321,160.600 345.354 L 152.600 345.370 148.858 344.068 C 146.800 343.352,143.740 342.074,142.058 341.226 C 139.238 339.805,137.669 338.906,130.400 334.541 C 128.970 333.682,127.268 332.714,126.618 332.390 C 124.317 331.242,120.400 327.209,120.400 325.987 C 120.400 323.971,118.935 321.461,115.620 317.800 C 112.377 314.217,107.917 308.481,103.335 302.000 C 98.417 295.043,84.400 273.836,84.400 273.351 C 84.400 273.237,83.860 272.359,83.200 271.400 C 82.540 270.441,82.000 269.572,82.000 269.469 C 82.000 269.366,81.309 268.138,80.465 266.741 C 79.621 265.343,78.155 262.760,77.209 261.000 C 76.262 259.240,75.360 257.620,75.204 257.400 C 75.048 257.180,73.693 254.660,72.194 251.800 C 70.695 248.940,69.324 246.330,69.147 246.000 C 68.802 245.359,66.630 240.629,65.242 237.500 C 63.268 233.048,62.845 232.099,61.999 230.219 C 59.660 225.027,55.319 213.087,53.995 208.200 C 53.617 206.809,52.675 203.392,51.761 200.100 C 50.589 195.876,49.520 191.254,48.364 185.400 C 44.383 165.248,43.709 144.361,46.583 130.200 C 46.717 129.540,47.014 128.010,47.243 126.800 C 47.472 125.590,47.841 123.880,48.063 123.000 C 48.285 122.120,48.646 120.680,48.866 119.800 C 49.748 116.274,50.105 114.964,50.393 114.200 C 50.559 113.760,51.088 112.140,51.568 110.600 C 52.048 109.060,52.594 107.440,52.782 107.000 C 52.969 106.560,53.533 105.120,54.035 103.800 C 59.686 88.939,69.176 76.091,82.292 65.543 C 88.150 60.832,97.446 56.400,101.468 56.400 C 102.230 56.400,103.212 56.208,103.651 55.973 C 104.090 55.738,105.923 55.391,107.724 55.201 C 109.526 55.011,111.596 54.554,112.325 54.186 C 114.000 53.339,118.899 52.616,129.784 51.609 C 132.415 51.365,134.658 51.075,134.769 50.964 C 135.152 50.582,178.607 51.131,182.000 51.561 M172.724 105.388 C 152.731 110.895,161.481 158.047,184.200 167.226 C 200.557 173.834,217.098 152.708,212.784 130.720 C 209.461 113.782,200.300 105.146,186.222 105.681 C 182.818 105.811,181.047 105.713,180.200 105.350 C 178.682 104.700,175.159 104.718,172.724 105.388 M106.600 112.981 C 104.332 113.656,103.699 113.963,101.038 115.678 C 99.739 116.515,98.349 117.200,97.950 117.200 C 94.628 117.200,89.522 123.125,86.919 130.000 C 86.130 132.084,85.846 133.311,84.831 139.024 C 84.288 142.076,84.267 153.301,84.800 155.072 C 85.020 155.802,85.404 157.075,85.654 157.900 C 89.480 170.547,102.560 179.437,113.182 176.610 C 120.420 174.684,127.425 168.559,130.182 161.747 C 130.793 160.236,131.439 158.640,131.617 158.200 C 131.794 157.760,132.054 156.860,132.195 156.200 C 132.335 155.540,132.646 154.100,132.886 153.000 C 133.741 149.081,133.337 134.379,132.358 133.774 C 132.161 133.652,132.000 133.291,132.000 132.972 C 132.000 130.954,127.524 123.986,123.523 119.774 C 117.772 113.719,111.959 111.386,106.600 112.981 " stroke="none" fill="#050505" fill-rule="evenodd"></path><path id="path1" d="M133.400 35.200 C 133.241 35.457,134.596 35.600,137.176 35.600 C 139.592 35.600,141.200 35.440,141.200 35.200 C 141.200 34.962,139.675 34.800,137.424 34.800 C 135.337 34.800,133.537 34.979,133.400 35.200 M156.400 35.200 C 156.400 35.447,158.467 35.600,161.800 35.600 C 165.133 35.600,167.200 35.447,167.200 35.200 C 167.200 34.953,165.133 34.800,161.800 34.800 C 158.467 34.800,156.400 34.953,156.400 35.200 M170.400 35.247 C 170.400 35.441,172.200 35.600,174.400 35.600 C 176.903 35.600,178.400 35.444,178.400 35.184 C 178.400 34.919,176.943 34.791,174.400 34.831 C 172.200 34.865,170.400 35.052,170.400 35.247 M126.000 36.000 C 126.000 36.220,126.720 36.400,127.600 36.400 C 128.480 36.400,129.200 36.220,129.200 36.000 C 129.200 35.780,128.480 35.600,127.600 35.600 C 126.720 35.600,126.000 35.780,126.000 36.000 M182.400 36.000 C 182.400 36.220,183.401 36.400,184.624 36.400 C 186.004 36.400,186.753 36.248,186.600 36.000 C 186.464 35.780,185.463 35.600,184.376 35.600 C 183.289 35.600,182.400 35.780,182.400 36.000 M121.600 36.800 C 121.600 37.020,122.140 37.200,122.800 37.200 C 123.460 37.200,124.000 37.020,124.000 36.800 C 124.000 36.580,123.460 36.400,122.800 36.400 C 122.140 36.400,121.600 36.580,121.600 36.800 M188.800 36.800 C 188.800 37.020,189.430 37.200,190.200 37.200 C 190.970 37.200,191.600 37.020,191.600 36.800 C 191.600 36.580,190.970 36.400,190.200 36.400 C 189.430 36.400,188.800 36.580,188.800 36.800 M117.600 37.600 C 117.600 37.820,118.050 38.000,118.600 38.000 C 119.150 38.000,119.600 37.820,119.600 37.600 C 119.600 37.380,119.150 37.200,118.600 37.200 C 118.050 37.200,117.600 37.380,117.600 37.600 M193.600 37.600 C 193.600 37.820,194.050 38.000,194.600 38.000 C 195.150 38.000,195.600 37.820,195.600 37.600 C 195.600 37.380,195.150 37.200,194.600 37.200 C 194.050 37.200,193.600 37.380,193.600 37.600 M113.600 38.400 C 113.600 38.620,114.140 38.800,114.800 38.800 C 115.460 38.800,116.000 38.620,116.000 38.400 C 116.000 38.180,115.460 38.000,114.800 38.000 C 114.140 38.000,113.600 38.180,113.600 38.400 M197.200 38.400 C 197.200 38.620,197.560 38.800,198.000 38.800 C 198.440 38.800,198.800 38.620,198.800 38.400 C 198.800 38.180,198.440 38.000,198.000 38.000 C 197.560 38.000,197.200 38.180,197.200 38.400 M110.400 39.200 C 110.400 39.420,110.850 39.600,111.400 39.600 C 111.950 39.600,112.400 39.420,112.400 39.200 C 112.400 38.980,111.950 38.800,111.400 38.800 C 110.850 38.800,110.400 38.980,110.400 39.200 M200.000 39.200 C 200.000 39.420,200.349 39.600,200.776 39.600 C 201.203 39.600,201.664 39.420,201.800 39.200 C 201.940 38.973,201.604 38.800,201.024 38.800 C 200.461 38.800,200.000 38.980,200.000 39.200 M108.200 40.000 C 108.064 40.220,108.323 40.400,108.776 40.400 C 109.229 40.400,109.600 40.220,109.600 40.000 C 109.600 39.780,109.341 39.600,109.024 39.600 C 108.707 39.600,108.336 39.780,108.200 40.000 M202.800 40.000 C 202.800 40.220,203.160 40.400,203.600 40.400 C 204.040 40.400,204.400 40.220,204.400 40.000 C 204.400 39.780,204.040 39.600,203.600 39.600 C 203.160 39.600,202.800 39.780,202.800 40.000 M205.200 40.800 C 205.200 41.020,205.560 41.200,206.000 41.200 C 206.440 41.200,206.800 41.020,206.800 40.800 C 206.800 40.580,206.440 40.400,206.000 40.400 C 205.560 40.400,205.200 40.580,205.200 40.800 M103.600 41.600 C 103.600 41.820,103.960 42.000,104.400 42.000 C 104.840 42.000,105.200 41.820,105.200 41.600 C 105.200 41.380,104.840 41.200,104.400 41.200 C 103.960 41.200,103.600 41.380,103.600 41.600 M207.200 41.600 C 207.200 41.820,207.560 42.000,208.000 42.000 C 208.440 42.000,208.800 41.820,208.800 41.600 C 208.800 41.380,208.440 41.200,208.000 41.200 C 207.560 41.200,207.200 41.380,207.200 41.600 M97.600 42.400 C 98.392 42.912,101.600 42.912,101.600 42.400 C 101.600 42.179,100.571 42.003,99.300 42.006 C 97.667 42.010,97.174 42.125,97.600 42.400 M93.078 42.656 C 92.624 43.109,93.220 43.600,94.224 43.600 C 94.825 43.600,95.200 43.369,95.200 43.000 C 95.200 42.401,93.593 42.141,93.078 42.656 M211.475 42.658 C 210.953 43.180,211.202 43.600,212.033 43.600 C 212.499 43.600,212.797 43.390,212.708 43.125 C 212.513 42.540,211.846 42.288,211.475 42.658 M90.584 43.627 C 90.439 43.861,90.420 44.153,90.543 44.276 C 90.872 44.605,92.000 44.091,92.000 43.613 C 92.000 43.070,90.921 43.080,90.584 43.627 M213.439 43.538 C 213.300 43.761,213.382 44.065,213.620 44.212 C 214.235 44.593,214.632 44.072,214.118 43.558 C 213.831 43.271,213.607 43.264,213.439 43.538 M88.077 44.430 C 88.156 44.667,88.391 44.860,88.600 44.860 C 88.809 44.860,89.044 44.667,89.123 44.430 C 89.202 44.194,88.967 44.000,88.600 44.000 C 88.233 44.000,87.998 44.194,88.077 44.430 M85.800 45.200 C 85.664 45.420,85.923 45.600,86.376 45.600 C 86.829 45.600,87.200 45.420,87.200 45.200 C 87.200 44.980,86.941 44.800,86.624 44.800 C 86.307 44.800,85.936 44.980,85.800 45.200 M79.200 48.400 C 79.200 48.620,79.470 48.800,79.800 48.800 C 80.130 48.800,80.400 48.620,80.400 48.400 C 80.400 48.180,80.130 48.000,79.800 48.000 C 79.470 48.000,79.200 48.180,79.200 48.400 M222.800 48.400 C 222.800 48.620,223.070 48.800,223.400 48.800 C 223.730 48.800,224.000 48.620,224.000 48.400 C 224.000 48.180,223.730 48.000,223.400 48.000 C 223.070 48.000,222.800 48.180,222.800 48.400 M77.600 49.200 C 77.600 49.420,77.870 49.600,78.200 49.600 C 78.530 49.600,78.800 49.420,78.800 49.200 C 78.800 48.980,78.530 48.800,78.200 48.800 C 77.870 48.800,77.600 48.980,77.600 49.200 M76.060 50.242 C 75.331 51.066,75.800 51.457,76.581 50.676 C 76.921 50.336,77.200 49.954,77.200 49.829 C 77.200 49.409,76.606 49.624,76.060 50.242 M226.000 49.829 C 226.000 50.253,227.236 51.297,227.467 51.067 C 227.592 50.941,227.417 50.560,227.076 50.219 C 226.441 49.584,226.000 49.424,226.000 49.829 M134.769 50.964 C 134.658 51.075,132.415 51.365,129.784 51.609 C 118.899 52.616,114.000 53.339,112.325 54.186 C 111.596 54.554,109.526 55.011,107.724 55.201 C 105.923 55.391,104.090 55.738,103.651 55.973 C 103.212 56.208,102.230 56.400,101.468 56.400 C 97.446 56.400,88.150 60.832,82.292 65.543 C 69.176 76.091,59.686 88.939,54.035 103.800 C 53.533 105.120,52.969 106.560,52.782 107.000 C 52.594 107.440,52.048 109.060,51.568 110.600 C 51.088 112.140,50.559 113.760,50.393 114.200 C 50.105 114.964,49.748 116.274,48.866 119.800 C 48.646 120.680,48.285 122.120,48.063 123.000 C 47.841 123.880,47.472 125.590,47.243 126.800 C 47.014 128.010,46.717 129.540,46.583 130.200 C 43.334 146.210,44.654 170.523,49.998 193.100 C 50.878 196.821,51.148 197.890,51.761 200.100 C 52.675 203.392,53.617 206.809,53.995 208.200 C 55.319 213.087,59.660 225.027,61.999 230.219 C 62.845 232.099,63.268 233.048,65.242 237.500 C 66.630 240.629,68.802 245.359,69.147 246.000 C 69.324 246.330,70.695 248.940,72.194 251.800 C 73.693 254.660,75.048 257.180,75.204 257.400 C 75.360 257.620,76.262 259.240,77.209 261.000 C 78.155 262.760,79.621 265.343,80.465 266.741 C 81.309 268.138,82.000 269.366,82.000 269.469 C 82.000 269.572,82.540 270.441,83.200 271.400 C 83.860 272.359,84.400 273.237,84.400 273.351 C 84.400 273.836,98.417 295.043,103.335 302.000 C 107.917 308.481,112.377 314.217,115.620 317.800 C 118.935 321.461,120.400 323.971,120.400 325.987 C 120.400 327.209,124.317 331.242,126.618 332.390 C 127.268 332.714,128.970 333.682,130.400 334.541 C 137.669 338.906,139.238 339.805,142.058 341.226 C 143.740 342.074,146.800 343.352,148.858 344.068 L 152.600 345.370 160.600 345.354 C 178.173 345.321,188.993 338.499,184.003 330.600 C 178.923 322.559,190.966 314.395,196.747 321.960 C 199.923 326.116,212.329 334.577,216.642 335.528 C 222.288 336.774,232.962 337.318,234.361 336.432 C 235.357 335.802,234.400 330.248,232.230 324.062 C 230.081 317.932,231.961 313.349,237.142 312.088 C 239.662 311.474,241.835 312.263,246.514 315.488 C 248.678 316.979,252.321 319.485,254.609 321.056 C 259.490 324.406,265.563 327.122,274.628 330.009 C 278.767 331.327,291.585 329.670,293.548 327.564 C 297.174 323.672,296.512 319.203,291.642 314.700 C 290.274 313.435,288.940 312.400,288.677 312.400 C 285.863 312.397,283.515 306.217,284.988 302.690 C 286.786 298.388,290.265 297.432,297.600 299.222 C 298.370 299.410,299.540 299.676,300.200 299.812 C 300.860 299.949,301.760 300.213,302.200 300.400 C 302.640 300.587,303.450 300.831,304.000 300.942 C 304.550 301.053,305.720 301.365,306.600 301.636 C 312.217 303.361,326.239 301.780,333.400 298.615 C 334.060 298.323,335.500 297.686,336.600 297.200 C 340.870 295.312,341.453 294.964,343.100 293.318 C 344.554 291.866,345.881 289.561,347.196 286.200 C 348.191 283.656,348.474 281.803,348.344 278.673 C 348.169 274.477,348.406 274.752,341.200 270.376 C 326.839 261.655,313.282 250.674,306.432 242.213 C 298.350 232.231,289.323 216.447,284.920 204.600 C 284.325 202.998,283.926 201.985,283.226 200.300 C 283.021 199.805,282.639 198.680,282.377 197.800 C 282.116 196.920,281.744 195.887,281.551 195.505 C 281.358 195.123,281.200 194.459,281.200 194.029 C 281.200 193.599,281.040 193.148,280.844 193.027 C 280.649 192.906,280.395 192.221,280.281 191.504 C 280.168 190.787,279.885 189.570,279.655 188.800 C 279.424 188.030,278.082 182.990,276.674 177.600 C 274.240 168.285,271.966 159.737,271.166 156.900 C 270.965 156.185,270.608 154.925,270.373 154.100 C 270.139 153.275,269.779 151.925,269.573 151.100 C 269.368 150.275,269.032 148.925,268.827 148.100 C 268.621 147.275,268.249 145.880,268.000 145.000 C 267.751 144.120,267.379 142.725,267.173 141.900 C 266.968 141.075,266.632 139.725,266.427 138.900 C 266.221 138.075,265.849 136.680,265.600 135.800 C 265.351 134.920,264.991 133.570,264.800 132.800 C 263.728 128.471,262.594 125.064,260.476 119.800 C 259.000 116.135,258.208 114.294,255.915 109.200 C 254.211 105.417,250.807 98.734,250.021 97.630 C 249.569 96.995,249.200 96.365,249.200 96.228 C 249.200 95.887,242.394 85.906,240.343 83.239 C 230.846 70.889,213.065 58.902,198.100 54.760 C 197.385 54.562,196.125 54.206,195.300 53.970 C 192.056 53.040,188.309 52.361,182.000 51.561 C 178.607 51.131,135.152 50.582,134.769 50.964 M73.260 52.251 C 72.743 52.802,72.417 53.350,72.536 53.469 C 72.752 53.685,74.800 51.830,74.800 51.418 C 74.800 50.947,74.156 51.295,73.260 52.251 M228.400 51.429 C 228.400 51.853,229.636 52.897,229.867 52.667 C 229.992 52.541,229.817 52.160,229.476 51.819 C 228.841 51.184,228.400 51.024,228.400 51.429 M230.800 53.029 C 230.800 53.453,232.036 54.497,232.267 54.267 C 232.392 54.141,232.217 53.760,231.876 53.419 C 231.241 52.784,230.800 52.624,230.800 53.029 M69.661 55.055 C 68.925 55.825,68.418 56.551,68.534 56.668 C 68.745 56.879,71.600 54.221,71.600 53.813 C 71.600 53.308,70.909 53.750,69.661 55.055 M234.000 55.429 C 234.000 55.853,235.236 56.897,235.467 56.667 C 235.592 56.541,235.417 56.160,235.076 55.819 C 234.441 55.184,234.000 55.024,234.000 55.429 M237.200 57.997 C 237.200 58.631,239.664 60.808,240.086 60.547 C 240.298 60.416,239.824 59.700,239.034 58.955 C 237.514 57.521,237.200 57.357,237.200 57.997 M64.954 58.915 C 64.708 59.182,63.718 60.139,62.754 61.043 C 60.308 63.335,58.310 65.643,58.557 65.891 C 58.771 66.104,66.000 59.053,66.000 58.632 C 66.000 58.246,65.428 58.400,64.954 58.915 M244.620 64.638 C 245.851 65.868,246.960 66.773,247.085 66.648 C 247.338 66.395,243.220 62.400,242.707 62.400 C 242.528 62.400,243.390 63.407,244.620 64.638 M55.260 69.451 C 54.743 70.002,54.417 70.550,54.536 70.669 C 54.752 70.885,56.800 69.030,56.800 68.618 C 56.800 68.147,56.156 68.495,55.260 69.451 M250.400 71.136 C 250.400 71.320,251.030 72.045,251.800 72.745 C 253.491 74.284,253.663 73.780,252.040 72.042 C 250.864 70.783,250.400 70.527,250.400 71.136 M52.460 73.042 C 51.731 73.866,52.200 74.257,52.981 73.476 C 53.321 73.136,53.600 72.754,53.600 72.629 C 53.600 72.209,53.006 72.424,52.460 73.042 M50.860 75.442 C 50.131 76.266,50.600 76.657,51.381 75.876 C 51.721 75.536,52.000 75.154,52.000 75.029 C 52.000 74.609,51.406 74.824,50.860 75.442 M253.757 75.433 C 253.891 75.781,254.000 76.141,254.000 76.233 C 254.000 76.325,254.270 76.400,254.600 76.400 C 254.930 76.400,255.200 76.591,255.200 76.824 C 255.200 77.057,255.373 77.140,255.585 77.009 C 255.800 76.877,255.591 76.336,255.113 75.786 C 254.146 74.674,253.391 74.477,253.757 75.433 M49.300 77.425 C 48.699 78.075,48.647 78.800,49.200 78.800 C 49.420 78.800,49.600 78.545,49.600 78.233 C 49.600 77.922,49.816 77.595,50.080 77.507 C 50.355 77.415,50.398 77.247,50.180 77.115 C 49.971 76.988,49.575 77.127,49.300 77.425 M255.890 77.843 C 255.538 78.195,256.502 79.600,257.096 79.600 C 257.735 79.600,257.718 79.189,257.043 78.300 C 256.470 77.546,256.268 77.465,255.890 77.843 M47.669 80.039 C 47.380 80.500,47.249 80.982,47.376 81.110 C 47.615 81.348,48.765 80.036,48.787 79.500 C 48.812 78.911,48.184 79.214,47.669 80.039 M259.600 83.800 C 259.600 84.130,259.780 84.400,260.000 84.400 C 260.220 84.400,260.400 84.130,260.400 83.800 C 260.400 83.470,260.220 83.200,260.000 83.200 C 259.780 83.200,259.600 83.470,259.600 83.800 M260.400 85.029 C 260.400 85.453,261.636 86.497,261.867 86.267 C 261.992 86.141,261.817 85.760,261.476 85.419 C 260.841 84.784,260.400 84.624,260.400 85.029 M262.000 87.600 C 262.000 87.820,262.180 88.000,262.400 88.000 C 262.620 88.000,262.800 88.283,262.800 88.629 C 262.800 89.420,263.943 90.597,264.319 90.193 C 264.474 90.027,264.375 89.810,264.100 89.712 C 263.825 89.614,263.600 89.265,263.600 88.938 C 263.600 88.358,262.686 87.200,262.229 87.200 C 262.103 87.200,262.000 87.380,262.000 87.600 M265.200 93.000 C 265.200 93.330,265.380 93.600,265.600 93.600 C 265.820 93.600,266.000 93.330,266.000 93.000 C 266.000 92.670,265.820 92.400,265.600 92.400 C 265.380 92.400,265.200 92.670,265.200 93.000 M40.400 94.600 C 40.400 94.930,40.580 95.200,40.800 95.200 C 41.020 95.200,41.200 94.930,41.200 94.600 C 41.200 94.270,41.020 94.000,40.800 94.000 C 40.580 94.000,40.400 94.270,40.400 94.600 M266.000 94.600 C 266.000 94.930,266.180 95.200,266.400 95.200 C 266.620 95.200,266.800 94.930,266.800 94.600 C 266.800 94.270,266.620 94.000,266.400 94.000 C 266.180 94.000,266.000 94.270,266.000 94.600 M39.600 96.200 C 39.600 96.530,39.780 96.800,40.000 96.800 C 40.220 96.800,40.400 96.530,40.400 96.200 C 40.400 95.870,40.220 95.600,40.000 95.600 C 39.780 95.600,39.600 95.870,39.600 96.200 M266.800 96.200 C 266.800 96.530,266.980 96.800,267.200 96.800 C 267.420 96.800,267.600 96.530,267.600 96.200 C 267.600 95.870,267.420 95.600,267.200 95.600 C 266.980 95.600,266.800 95.870,266.800 96.200 M267.600 97.800 C 267.600 98.130,267.780 98.400,268.000 98.400 C 268.220 98.400,268.400 98.130,268.400 97.800 C 268.400 97.470,268.220 97.200,268.000 97.200 C 267.780 97.200,267.600 97.470,267.600 97.800 M268.400 99.400 C 268.400 99.730,268.580 100.000,268.800 100.000 C 269.020 100.000,269.200 99.730,269.200 99.400 C 269.200 99.070,269.020 98.800,268.800 98.800 C 268.580 98.800,268.400 99.070,268.400 99.400 M38.000 100.400 C 38.000 100.840,38.180 101.200,38.400 101.200 C 38.620 101.200,38.800 100.840,38.800 100.400 C 38.800 99.960,38.620 99.600,38.400 99.600 C 38.180 99.600,38.000 99.960,38.000 100.400 M269.200 101.000 C 269.200 101.330,269.380 101.600,269.600 101.600 C 269.820 101.600,270.000 101.330,270.000 101.000 C 270.000 100.670,269.820 100.400,269.600 100.400 C 269.380 100.400,269.200 100.670,269.200 101.000 M37.200 102.800 C 37.200 103.240,37.380 103.600,37.600 103.600 C 37.820 103.600,38.000 103.240,38.000 102.800 C 38.000 102.360,37.820 102.000,37.600 102.000 C 37.380 102.000,37.200 102.360,37.200 102.800 M36.400 105.000 C 36.400 105.330,36.580 105.600,36.800 105.600 C 37.020 105.600,37.200 105.330,37.200 105.000 C 37.200 104.670,37.020 104.400,36.800 104.400 C 36.580 104.400,36.400 104.670,36.400 105.000 M180.200 105.350 C 181.047 105.713,182.818 105.811,186.222 105.681 C 198.955 105.197,208.648 113.159,211.935 126.800 C 218.630 154.592,198.822 177.638,179.400 164.651 C 161.568 152.728,155.236 115.587,169.524 106.726 C 172.334 104.984,177.724 104.289,180.200 105.350 M271.600 105.976 C 271.600 106.429,271.780 106.800,272.000 106.800 C 272.220 106.800,272.400 106.541,272.400 106.224 C 272.400 105.907,272.220 105.536,272.000 105.400 C 271.780 105.264,271.600 105.523,271.600 105.976 M35.600 107.600 C 35.600 108.040,35.780 108.400,36.000 108.400 C 36.220 108.400,36.400 108.040,36.400 107.600 C 36.400 107.160,36.220 106.800,36.000 106.800 C 35.780 106.800,35.600 107.160,35.600 107.600 M272.000 108.000 C 272.000 108.220,272.270 108.400,272.600 108.400 C 272.930 108.400,273.200 108.220,273.200 108.000 C 273.200 107.780,272.930 107.600,272.600 107.600 C 272.270 107.600,272.000 107.780,272.000 108.000 M35.067 109.067 C 34.652 109.482,34.753 110.800,35.200 110.800 C 35.420 110.800,35.600 110.350,35.600 109.800 C 35.600 108.753,35.508 108.626,35.067 109.067 M273.010 109.184 C 272.671 109.733,272.971 110.145,273.562 109.942 C 273.804 109.858,273.835 109.576,273.637 109.257 C 273.387 108.855,273.225 108.836,273.010 109.184 M273.778 111.235 C 273.631 111.474,273.710 111.870,273.955 112.115 C 274.282 112.442,274.400 112.326,274.400 111.680 C 274.400 110.714,274.192 110.565,273.778 111.235 M34.267 111.867 C 33.852 112.282,33.953 113.600,34.400 113.600 C 34.620 113.600,34.800 113.150,34.800 112.600 C 34.800 111.553,34.708 111.426,34.267 111.867 M114.026 113.240 C 120.632 115.408,132.000 127.889,132.000 132.972 C 132.000 133.291,132.161 133.652,132.358 133.774 C 133.337 134.379,133.741 149.081,132.886 153.000 C 132.646 154.100,132.335 155.540,132.195 156.200 C 132.054 156.860,131.794 157.760,131.617 158.200 C 131.439 158.640,130.793 160.236,130.182 161.747 C 127.425 168.559,120.420 174.684,113.182 176.610 C 102.560 179.437,89.480 170.547,85.654 157.900 C 85.404 157.075,85.020 155.802,84.800 155.072 C 84.267 153.301,84.288 142.076,84.831 139.024 C 85.846 133.311,86.130 132.084,86.919 130.000 C 89.522 123.125,94.628 117.200,97.950 117.200 C 98.349 117.200,99.739 116.515,101.038 115.678 C 106.160 112.376,109.491 111.751,114.026 113.240 M274.400 113.400 C 274.400 113.730,274.580 114.000,274.800 114.000 C 275.020 114.000,275.200 113.730,275.200 113.400 C 275.200 113.070,275.020 112.800,274.800 112.800 C 274.580 112.800,274.400 113.070,274.400 113.400 M275.200 115.200 C 275.200 115.640,275.380 116.000,275.600 116.000 C 275.820 116.000,276.000 115.640,276.000 115.200 C 276.000 114.760,275.820 114.400,275.600 114.400 C 275.380 114.400,275.200 114.760,275.200 115.200 M33.200 115.600 C 33.200 116.040,33.380 116.400,33.600 116.400 C 33.820 116.400,34.000 116.040,34.000 115.600 C 34.000 115.160,33.820 114.800,33.600 114.800 C 33.380 114.800,33.200 115.160,33.200 115.600 M276.000 117.400 C 276.000 117.730,276.180 118.000,276.400 118.000 C 276.620 118.000,276.800 117.730,276.800 117.400 C 276.800 117.070,276.620 116.800,276.400 116.800 C 276.180 116.800,276.000 117.070,276.000 117.400 M32.400 119.200 C 32.400 119.640,32.580 120.000,32.800 120.000 C 33.020 120.000,33.200 119.640,33.200 119.200 C 33.200 118.760,33.020 118.400,32.800 118.400 C 32.580 118.400,32.400 118.760,32.400 119.200 M276.800 119.800 C 276.800 120.130,276.980 120.400,277.200 120.400 C 277.420 120.400,277.600 120.130,277.600 119.800 C 277.600 119.470,277.420 119.200,277.200 119.200 C 276.980 119.200,276.800 119.470,276.800 119.800 M31.600 122.400 C 31.600 122.840,31.780 123.200,32.000 123.200 C 32.220 123.200,32.400 122.840,32.400 122.400 C 32.400 121.960,32.220 121.600,32.000 121.600 C 31.780 121.600,31.600 121.960,31.600 122.400 M277.600 122.200 C 277.600 122.530,277.780 122.800,278.000 122.800 C 278.220 122.800,278.400 122.530,278.400 122.200 C 278.400 121.870,278.220 121.600,278.000 121.600 C 277.780 121.600,277.600 121.870,277.600 122.200 M278.400 124.600 C 278.400 124.930,278.580 125.200,278.800 125.200 C 279.020 125.200,279.200 124.930,279.200 124.600 C 279.200 124.270,279.020 124.000,278.800 124.000 C 278.580 124.000,278.400 124.270,278.400 124.600 M30.800 126.400 C 30.800 126.840,30.980 127.200,31.200 127.200 C 31.420 127.200,31.600 126.840,31.600 126.400 C 31.600 125.960,31.420 125.600,31.200 125.600 C 30.980 125.600,30.800 125.960,30.800 126.400 M279.200 127.200 C 279.200 127.640,279.380 128.000,279.600 128.000 C 279.820 128.000,280.000 127.640,280.000 127.200 C 280.000 126.760,279.820 126.400,279.600 126.400 C 279.380 126.400,279.200 126.760,279.200 127.200 M30.000 130.800 C 30.000 131.680,30.180 132.400,30.400 132.400 C 30.620 132.400,30.800 131.680,30.800 130.800 C 30.800 129.920,30.620 129.200,30.400 129.200 C 30.180 129.200,30.000 129.920,30.000 130.800 M280.000 130.000 C 280.000 130.440,280.180 130.800,280.400 130.800 C 280.620 130.800,280.800 130.440,280.800 130.000 C 280.800 129.560,280.620 129.200,280.400 129.200 C 280.180 129.200,280.000 129.560,280.000 130.000 M280.800 133.200 C 280.800 133.640,280.980 134.000,281.200 134.000 C 281.420 134.000,281.600 133.640,281.600 133.200 C 281.600 132.760,281.420 132.400,281.200 132.400 C 280.980 132.400,280.800 132.760,280.800 133.200 M29.200 136.800 C 29.200 137.900,29.360 138.800,29.555 138.800 C 29.984 138.800,30.359 136.528,30.096 135.522 C 29.722 134.095,29.200 134.840,29.200 136.800 M281.600 136.200 C 281.600 136.796,281.772 137.141,282.000 137.000 C 282.220 136.864,282.400 136.504,282.400 136.200 C 282.400 135.896,282.220 135.536,282.000 135.400 C 281.772 135.259,281.600 135.604,281.600 136.200 M282.400 139.200 C 282.400 139.860,282.580 140.400,282.800 140.400 C 283.020 140.400,283.200 139.860,283.200 139.200 C 283.200 138.540,283.020 138.000,282.800 138.000 C 282.580 138.000,282.400 138.540,282.400 139.200 M283.200 142.200 C 283.200 142.750,283.380 143.200,283.600 143.200 C 283.820 143.200,284.000 142.750,284.000 142.200 C 284.000 141.650,283.820 141.200,283.600 141.200 C 283.380 141.200,283.200 141.650,283.200 142.200 M28.691 143.842 C 28.236 144.298,28.339 157.515,28.800 157.800 C 29.036 157.946,29.202 157.503,29.206 156.724 C 29.209 155.996,29.303 153.240,29.414 150.600 C 29.608 146.000,29.311 143.223,28.691 143.842 M284.000 144.976 C 284.000 145.539,284.180 146.000,284.400 146.000 C 284.620 146.000,284.800 145.651,284.800 145.224 C 284.800 144.797,284.620 144.336,284.400 144.200 C 284.173 144.060,284.000 144.396,284.000 144.976 M284.800 148.000 C 284.800 148.440,284.980 148.800,285.200 148.800 C 285.420 148.800,285.600 148.440,285.600 148.000 C 285.600 147.560,285.420 147.200,285.200 147.200 C 284.980 147.200,284.800 147.560,284.800 148.000 M285.600 151.200 C 285.600 151.640,285.780 152.000,286.000 152.000 C 286.220 152.000,286.400 151.640,286.400 151.200 C 286.400 150.760,286.220 150.400,286.000 150.400 C 285.780 150.400,285.600 150.760,285.600 151.200 M286.290 153.577 C 286.065 154.437,286.326 154.893,286.856 154.566 C 287.309 154.285,287.301 152.800,286.847 152.800 C 286.652 152.800,286.402 153.150,286.290 153.577 M287.067 156.267 C 286.579 156.754,286.791 157.600,287.400 157.600 C 287.733 157.600,288.000 157.244,288.000 156.800 C 288.000 156.003,287.574 155.760,287.067 156.267 M287.869 159.363 C 287.644 159.950,287.904 160.400,288.467 160.400 C 288.913 160.400,288.894 159.305,288.442 159.026 C 288.245 158.904,287.987 159.056,287.869 159.363 M288.656 162.199 C 288.299 163.130,288.323 163.200,289.000 163.200 C 289.673 163.200,289.749 162.855,289.250 162.066 C 288.980 161.641,288.860 161.668,288.656 162.199 M29.200 165.600 C 29.200 166.700,29.380 167.600,29.600 167.600 C 29.820 167.600,30.000 166.700,30.000 165.600 C 30.000 164.500,29.820 163.600,29.600 163.600 C 29.380 163.600,29.200 164.500,29.200 165.600 M289.389 164.927 C 289.224 165.334,289.290 165.850,289.540 166.100 C 290.215 166.775,290.582 166.128,290.105 165.104 C 289.719 164.275,289.660 164.260,289.389 164.927 M290.000 168.400 C 290.000 168.840,290.259 169.200,290.575 169.200 C 290.904 169.200,291.124 168.857,291.090 168.400 C 291.057 167.960,290.798 167.600,290.515 167.600 C 290.232 167.600,290.000 167.960,290.000 168.400 M290.800 171.400 C 290.800 171.730,290.980 172.000,291.200 172.000 C 291.420 172.000,291.600 171.730,291.600 171.400 C 291.600 171.070,291.420 170.800,291.200 170.800 C 290.980 170.800,290.800 171.070,290.800 171.400 M30.000 172.800 C 30.000 173.680,30.180 174.400,30.400 174.400 C 30.620 174.400,30.800 173.680,30.800 172.800 C 30.800 171.920,30.620 171.200,30.400 171.200 C 30.180 171.200,30.000 171.920,30.000 172.800 M291.600 174.800 C 291.600 175.240,291.780 175.600,292.000 175.600 C 292.220 175.600,292.400 175.240,292.400 174.800 C 292.400 174.360,292.220 174.000,292.000 174.000 C 291.780 174.000,291.600 174.360,291.600 174.800 M292.400 177.400 C 292.400 177.950,292.580 178.400,292.800 178.400 C 293.020 178.400,293.200 177.950,293.200 177.400 C 293.200 176.850,293.020 176.400,292.800 176.400 C 292.580 176.400,292.400 176.850,292.400 177.400 M30.800 178.776 C 30.800 179.643,30.980 180.464,31.200 180.600 C 31.444 180.751,31.600 180.137,31.600 179.024 C 31.600 178.021,31.420 177.200,31.200 177.200 C 30.980 177.200,30.800 177.909,30.800 178.776 M293.200 180.600 C 293.200 180.930,293.380 181.200,293.600 181.200 C 293.820 181.200,294.000 180.930,294.000 180.600 C 294.000 180.270,293.820 180.000,293.600 180.000 C 293.380 180.000,293.200 180.270,293.200 180.600 M294.000 183.400 C 294.000 183.950,294.180 184.400,294.400 184.400 C 294.620 184.400,294.800 183.950,294.800 183.400 C 294.800 182.850,294.620 182.400,294.400 182.400 C 294.180 182.400,294.000 182.850,294.000 183.400 M31.600 183.976 C 31.600 184.623,31.780 185.264,32.000 185.400 C 32.238 185.547,32.400 185.071,32.400 184.224 C 32.400 183.441,32.220 182.800,32.000 182.800 C 31.780 182.800,31.600 183.329,31.600 183.976 M294.800 186.200 C 294.800 186.530,294.980 186.800,295.200 186.800 C 295.420 186.800,295.600 186.530,295.600 186.200 C 295.600 185.870,295.420 185.600,295.200 185.600 C 294.980 185.600,294.800 185.870,294.800 186.200 M32.400 188.200 C 32.400 188.750,32.580 189.200,32.800 189.200 C 33.020 189.200,33.200 188.750,33.200 188.200 C 33.200 187.650,33.020 187.200,32.800 187.200 C 32.580 187.200,32.400 187.650,32.400 188.200 M295.600 188.800 C 295.600 189.240,295.780 189.600,296.000 189.600 C 296.220 189.600,296.400 189.240,296.400 188.800 C 296.400 188.360,296.220 188.000,296.000 188.000 C 295.780 188.000,295.600 188.360,295.600 188.800 M296.400 191.200 C 296.400 191.640,296.580 192.000,296.800 192.000 C 297.020 192.000,297.200 191.640,297.200 191.200 C 297.200 190.760,297.020 190.400,296.800 190.400 C 296.580 190.400,296.400 190.760,296.400 191.200 M33.200 192.200 C 33.200 192.750,33.380 193.200,33.600 193.200 C 33.820 193.200,34.000 192.750,34.000 192.200 C 34.000 191.650,33.820 191.200,33.600 191.200 C 33.380 191.200,33.200 191.650,33.200 192.200 M297.200 193.600 C 297.200 194.040,297.380 194.400,297.600 194.400 C 297.820 194.400,298.000 194.040,298.000 193.600 C 298.000 193.160,297.820 192.800,297.600 192.800 C 297.380 192.800,297.200 193.160,297.200 193.600 M34.000 195.776 C 34.000 196.313,34.180 196.864,34.400 197.000 C 34.633 197.144,34.800 196.737,34.800 196.024 C 34.800 195.351,34.620 194.800,34.400 194.800 C 34.180 194.800,34.000 195.239,34.000 195.776 M298.000 195.600 C 298.000 196.040,298.180 196.400,298.400 196.400 C 298.620 196.400,298.800 196.040,298.800 195.600 C 298.800 195.160,298.620 194.800,298.400 194.800 C 298.180 194.800,298.000 195.160,298.000 195.600 M298.800 197.800 C 298.800 198.130,298.980 198.400,299.200 198.400 C 299.420 198.400,299.600 198.130,299.600 197.800 C 299.600 197.470,299.420 197.200,299.200 197.200 C 298.980 197.200,298.800 197.470,298.800 197.800 M34.800 199.200 C 34.800 199.860,34.980 200.400,35.200 200.400 C 35.420 200.400,35.600 199.860,35.600 199.200 C 35.600 198.540,35.420 198.000,35.200 198.000 C 34.980 198.000,34.800 198.540,34.800 199.200 M299.600 199.576 C 299.600 200.029,299.780 200.400,300.000 200.400 C 300.220 200.400,300.400 200.141,300.400 199.824 C 300.400 199.507,300.220 199.136,300.000 199.000 C 299.780 198.864,299.600 199.123,299.600 199.576 M35.600 202.200 C 35.600 202.750,35.780 203.200,36.000 203.200 C 36.220 203.200,36.400 202.750,36.400 202.200 C 36.400 201.650,36.220 201.200,36.000 201.200 C 35.780 201.200,35.600 201.650,35.600 202.200 M301.200 203.400 C 301.200 203.730,301.380 204.000,301.600 204.000 C 301.820 204.000,302.000 203.730,302.000 203.400 C 302.000 203.070,301.820 202.800,301.600 202.800 C 301.380 202.800,301.200 203.070,301.200 203.400 M36.400 205.000 C 36.400 205.550,36.580 206.000,36.800 206.000 C 37.020 206.000,37.200 205.550,37.200 205.000 C 37.200 204.450,37.020 204.000,36.800 204.000 C 36.580 204.000,36.400 204.450,36.400 205.000 M302.800 206.800 C 302.800 207.240,302.980 207.600,303.200 207.600 C 303.420 207.600,303.600 207.960,303.600 208.400 C 303.600 208.840,303.780 209.200,304.000 209.200 C 304.220 209.200,304.400 209.545,304.400 209.967 C 304.400 210.388,304.541 210.793,304.712 210.867 C 304.884 210.940,305.330 211.630,305.703 212.400 C 306.076 213.170,306.386 213.578,306.391 213.307 C 306.401 212.774,303.218 206.000,302.958 206.000 C 302.871 206.000,302.800 206.360,302.800 206.800 M37.200 208.000 C 37.200 208.440,37.380 208.800,37.600 208.800 C 37.820 208.800,38.000 208.440,38.000 208.000 C 38.000 207.560,37.820 207.200,37.600 207.200 C 37.380 207.200,37.200 207.560,37.200 208.000 M38.000 211.000 C 38.000 211.550,38.180 212.000,38.400 212.000 C 38.620 212.000,38.800 211.550,38.800 211.000 C 38.800 210.450,38.620 210.000,38.400 210.000 C 38.180 210.000,38.000 210.450,38.000 211.000 M38.800 213.600 C 38.800 214.040,38.980 214.400,39.200 214.400 C 39.420 214.400,39.600 214.040,39.600 213.600 C 39.600 213.160,39.420 212.800,39.200 212.800 C 38.980 212.800,38.800 213.160,38.800 213.600 M306.806 214.224 C 306.803 214.676,307.064 215.396,307.387 215.824 C 307.919 216.526,307.976 216.533,307.987 215.900 C 307.994 215.515,307.809 215.200,307.576 215.200 C 307.343 215.200,307.242 215.056,307.350 214.881 C 307.458 214.705,307.382 214.300,307.180 213.981 C 306.887 213.518,306.811 213.567,306.806 214.224 M39.600 216.000 C 39.600 216.440,39.780 216.800,40.000 216.800 C 40.220 216.800,40.400 216.440,40.400 216.000 C 40.400 215.560,40.220 215.200,40.000 215.200 C 39.780 215.200,39.600 215.560,39.600 216.000 M40.400 218.600 C 40.400 218.930,40.580 219.200,40.800 219.200 C 41.020 219.200,41.200 218.930,41.200 218.600 C 41.200 218.270,41.020 218.000,40.800 218.000 C 40.580 218.000,40.400 218.270,40.400 218.600 M308.800 218.629 C 308.800 219.053,310.036 220.097,310.267 219.867 C 310.392 219.741,310.217 219.360,309.876 219.019 C 309.241 218.384,308.800 218.224,308.800 218.629 M41.200 220.920 C 41.200 221.656,42.141 223.593,42.500 223.597 C 42.991 223.602,42.842 222.932,42.241 222.434 C 41.934 222.179,41.775 221.617,41.888 221.185 C 42.001 220.751,41.894 220.400,41.647 220.400 C 41.401 220.400,41.200 220.634,41.200 220.920 M311.200 222.629 C 311.200 223.053,312.436 224.097,312.667 223.867 C 312.792 223.741,312.617 223.360,312.276 223.019 C 311.641 222.384,311.200 222.224,311.200 222.629 M42.683 225.204 C 42.548 225.720,42.673 226.000,43.037 226.000 C 43.656 226.000,43.811 224.977,43.245 224.628 C 43.050 224.508,42.797 224.767,42.683 225.204 M312.800 225.029 C 312.800 225.154,313.079 225.536,313.419 225.876 C 314.189 226.647,314.699 226.243,314.008 225.410 C 313.509 224.808,312.800 224.584,312.800 225.029 M43.277 227.230 C 43.356 227.466,43.591 227.660,43.800 227.660 C 44.009 227.660,44.245 227.466,44.323 227.230 C 44.402 226.994,44.167 226.800,43.800 226.800 C 43.433 226.800,43.198 226.994,43.277 227.230 M314.836 227.585 C 315.845 229.345,316.800 230.117,316.800 229.171 C 316.800 228.731,316.368 228.250,315.034 227.200 C 314.305 226.626,314.296 226.643,314.836 227.585 M44.188 229.220 C 43.807 229.835,44.328 230.232,44.842 229.718 C 45.129 229.431,45.136 229.207,44.862 229.039 C 44.639 228.900,44.335 228.982,44.188 229.220 M317.613 231.300 C 317.627 231.880,319.550 233.383,319.870 233.064 C 320.085 232.848,318.229 230.800,317.818 230.800 C 317.698 230.800,317.606 231.025,317.613 231.300 M45.600 233.400 C 45.600 233.730,45.780 234.000,46.000 234.000 C 46.220 234.000,46.400 233.730,46.400 233.400 C 46.400 233.070,46.220 232.800,46.000 232.800 C 45.780 232.800,45.600 233.070,45.600 233.400 M46.400 235.000 C 46.400 235.330,46.580 235.600,46.800 235.600 C 47.020 235.600,47.200 235.330,47.200 235.000 C 47.200 234.670,47.020 234.400,46.800 234.400 C 46.580 234.400,46.400 234.670,46.400 235.000 M321.493 235.840 C 321.133 236.200,323.952 238.877,324.400 238.600 C 324.613 238.468,324.166 237.739,323.407 236.980 C 321.938 235.511,321.865 235.468,321.493 235.840 M47.200 236.976 C 47.200 237.293,47.380 237.664,47.600 237.800 C 47.820 237.936,48.000 237.677,48.000 237.224 C 48.000 236.771,47.820 236.400,47.600 236.400 C 47.380 236.400,47.200 236.659,47.200 236.976 M48.000 239.000 C 48.000 239.330,48.180 239.600,48.400 239.600 C 48.620 239.600,48.800 239.330,48.800 239.000 C 48.800 238.670,48.620 238.400,48.400 238.400 C 48.180 238.400,48.000 238.670,48.000 239.000 M324.400 239.029 C 324.400 239.453,325.636 240.497,325.867 240.267 C 325.992 240.141,325.817 239.760,325.476 239.419 C 324.841 238.784,324.400 238.624,324.400 239.029 M327.600 241.413 C 327.600 241.896,330.377 244.361,330.570 244.049 C 330.685 243.862,330.159 243.145,329.400 242.455 C 328.064 241.238,327.600 240.970,327.600 241.413 M49.600 242.200 C 49.600 242.530,49.780 242.800,50.000 242.800 C 50.220 242.800,50.400 242.530,50.400 242.200 C 50.400 241.870,50.220 241.600,50.000 241.600 C 49.780 241.600,49.600 241.870,49.600 242.200 M50.400 244.200 C 50.400 244.530,50.580 244.800,50.800 244.800 C 51.020 244.800,51.200 244.530,51.200 244.200 C 51.200 243.870,51.020 243.600,50.800 243.600 C 50.580 243.600,50.400 243.870,50.400 244.200 M331.600 244.276 C 331.600 244.781,333.136 246.400,333.616 246.400 C 334.400 246.400,333.971 245.766,332.298 244.451 C 331.914 244.149,331.600 244.070,331.600 244.276 M51.200 245.800 C 51.200 246.130,51.380 246.400,51.600 246.400 C 51.820 246.400,52.000 246.130,52.000 245.800 C 52.000 245.470,51.820 245.200,51.600 245.200 C 51.380 245.200,51.200 245.470,51.200 245.800 M334.957 247.033 C 335.091 247.381,335.200 247.741,335.200 247.833 C 335.200 247.925,335.470 248.000,335.800 248.000 C 336.552 248.000,336.560 247.703,335.829 246.971 C 335.073 246.216,334.655 246.245,334.957 247.033 M52.000 247.400 C 52.000 247.730,52.180 248.000,52.400 248.000 C 52.620 248.000,52.800 247.730,52.800 247.400 C 52.800 247.070,52.620 246.800,52.400 246.800 C 52.180 246.800,52.000 247.070,52.000 247.400 M337.600 249.029 C 337.600 249.421,338.722 250.400,339.171 250.400 C 339.757 250.400,339.709 250.052,339.029 249.371 C 338.458 248.801,337.600 248.595,337.600 249.029 M340.000 250.629 C 340.000 251.053,341.236 252.097,341.467 251.867 C 341.592 251.741,341.417 251.360,341.076 251.019 C 340.441 250.384,340.000 250.224,340.000 250.629 M342.400 252.229 C 342.400 252.653,343.636 253.697,343.867 253.467 C 343.992 253.341,343.817 252.960,343.476 252.619 C 342.841 251.984,342.400 251.824,342.400 252.229 M55.200 253.800 C 55.200 254.130,55.380 254.400,55.600 254.400 C 55.820 254.400,56.000 254.130,56.000 253.800 C 56.000 253.470,55.820 253.200,55.600 253.200 C 55.380 253.200,55.200 253.470,55.200 253.800 M344.800 253.829 C 344.800 254.253,346.036 255.297,346.267 255.067 C 346.392 254.941,346.217 254.560,345.876 254.219 C 345.241 253.584,344.800 253.424,344.800 253.829 M56.000 255.400 C 56.000 255.730,56.180 256.000,56.400 256.000 C 56.620 256.000,56.800 255.730,56.800 255.400 C 56.800 255.070,56.620 254.800,56.400 254.800 C 56.180 254.800,56.000 255.070,56.000 255.400 M347.200 255.429 C 347.200 255.853,348.436 256.897,348.667 256.667 C 348.792 256.541,348.617 256.160,348.276 255.819 C 347.641 255.184,347.200 255.024,347.200 255.429 M349.200 257.200 C 349.200 257.420,349.470 257.600,349.800 257.600 C 350.130 257.600,350.400 257.780,350.400 258.000 C 350.400 258.220,350.670 258.400,351.000 258.400 C 351.330 258.400,351.600 258.580,351.600 258.800 C 351.600 259.020,351.870 259.200,352.200 259.200 C 353.207 259.200,352.870 258.526,351.600 258.000 C 350.940 257.727,350.400 257.345,350.400 257.151 C 350.400 256.958,350.130 256.800,349.800 256.800 C 349.470 256.800,349.200 256.980,349.200 257.200 M353.200 259.198 C 353.200 259.545,354.462 260.400,354.974 260.400 C 355.098 260.400,355.200 260.209,355.200 259.976 C 355.200 259.743,355.020 259.664,354.800 259.800 C 354.580 259.936,354.400 259.876,354.400 259.666 C 354.400 259.457,354.130 259.182,353.800 259.055 C 353.470 258.929,353.200 258.993,353.200 259.198 M355.600 260.957 C 355.600 261.526,356.752 262.181,357.114 261.819 C 357.370 261.564,356.416 260.400,355.951 260.400 C 355.758 260.400,355.600 260.651,355.600 260.957 M358.000 262.213 C 358.000 262.568,360.840 265.293,361.021 265.112 C 361.113 265.020,360.582 264.282,359.841 263.472 C 358.584 262.101,358.000 261.701,358.000 262.213 M59.600 263.200 C 59.600 263.420,59.870 263.600,60.200 263.600 C 60.530 263.600,60.800 263.420,60.800 263.200 C 60.800 262.980,60.530 262.800,60.200 262.800 C 59.870 262.800,59.600 262.980,59.600 263.200 M60.650 264.319 C 60.347 264.810,61.571 266.193,61.941 265.779 C 62.134 265.563,61.968 265.105,61.555 264.715 C 61.156 264.338,60.749 264.160,60.650 264.319 M62.000 267.000 C 62.000 267.367,62.194 267.602,62.430 267.523 C 62.666 267.445,62.860 267.209,62.860 267.000 C 62.860 266.791,62.666 266.555,62.430 266.477 C 62.194 266.398,62.000 266.633,62.000 267.000 M362.000 268.200 C 362.000 268.530,362.180 268.800,362.400 268.800 C 362.620 268.800,362.800 268.530,362.800 268.200 C 362.800 267.870,362.620 267.600,362.400 267.600 C 362.180 267.600,362.000 267.870,362.000 268.200 M62.800 268.600 C 62.800 268.930,62.980 269.200,63.200 269.200 C 63.420 269.200,63.600 268.930,63.600 268.600 C 63.600 268.270,63.420 268.000,63.200 268.000 C 62.980 268.000,62.800 268.270,62.800 268.600 M63.600 270.200 C 63.600 270.530,63.780 270.800,64.000 270.800 C 64.220 270.800,64.400 270.530,64.400 270.200 C 64.400 269.870,64.220 269.600,64.000 269.600 C 63.780 269.600,63.600 269.870,63.600 270.200 M362.800 271.200 C 362.800 271.860,362.980 272.400,363.200 272.400 C 363.420 272.400,363.600 271.860,363.600 271.200 C 363.600 270.540,363.420 270.000,363.200 270.000 C 362.980 270.000,362.800 270.540,362.800 271.200 M64.400 271.600 C 64.400 271.820,64.580 272.000,64.800 272.000 C 65.020 272.000,65.200 272.270,65.200 272.600 C 65.200 272.930,65.380 273.200,65.600 273.200 C 66.182 273.200,66.090 272.432,65.429 271.771 C 64.758 271.101,64.400 271.042,64.400 271.600 M363.600 277.353 C 363.600 281.783,364.269 282.196,364.366 277.826 C 364.409 275.835,364.269 274.366,364.020 274.212 C 363.739 274.039,363.600 275.081,363.600 277.353 M67.600 277.029 C 67.600 277.453,68.836 278.497,69.067 278.267 C 69.192 278.141,69.017 277.760,68.676 277.419 C 68.041 276.784,67.600 276.624,67.600 277.029 M70.000 281.029 C 70.000 281.453,71.236 282.497,71.467 282.267 C 71.592 282.141,71.417 281.760,71.076 281.419 C 70.441 280.784,70.000 280.624,70.000 281.029 M363.600 284.000 C 363.600 284.880,363.780 285.600,364.000 285.600 C 364.220 285.600,364.400 284.880,364.400 284.000 C 364.400 283.120,364.220 282.400,364.000 282.400 C 363.780 282.400,363.600 283.120,363.600 284.000 M71.600 283.429 C 71.600 283.853,72.836 284.897,73.067 284.667 C 73.192 284.541,73.017 284.160,72.676 283.819 C 72.041 283.184,71.600 283.024,71.600 283.429 M73.200 285.800 C 73.200 286.130,73.380 286.400,73.600 286.400 C 73.820 286.400,74.000 286.130,74.000 285.800 C 74.000 285.470,73.820 285.200,73.600 285.200 C 73.380 285.200,73.200 285.470,73.200 285.800 M74.300 287.465 C 74.575 287.576,74.800 287.922,74.800 288.233 C 74.800 288.545,74.980 288.800,75.200 288.800 C 75.846 288.800,75.658 287.708,74.967 287.443 C 74.619 287.309,74.214 287.214,74.067 287.232 C 73.920 287.249,74.025 287.354,74.300 287.465 M362.800 288.000 C 362.800 288.440,362.980 288.800,363.200 288.800 C 363.420 288.800,363.600 288.440,363.600 288.000 C 363.600 287.560,363.420 287.200,363.200 287.200 C 362.980 287.200,362.800 287.560,362.800 288.000 M75.742 289.793 C 75.884 290.163,76.000 290.541,76.000 290.633 C 76.000 290.725,76.270 290.800,76.600 290.800 C 77.458 290.800,77.341 290.280,76.342 289.657 C 75.582 289.182,75.514 289.198,75.742 289.793 M76.800 291.829 C 76.800 292.339,78.022 293.234,78.400 293.000 C 78.656 292.842,78.594 292.537,78.232 292.174 C 77.659 291.602,76.800 291.394,76.800 291.829 M361.200 292.600 C 361.200 292.930,361.380 293.200,361.600 293.200 C 361.820 293.200,362.000 292.930,362.000 292.600 C 362.000 292.270,361.820 292.000,361.600 292.000 C 361.380 292.000,361.200 292.270,361.200 292.600 M78.893 294.800 C 79.362 295.551,80.000 295.880,80.000 295.371 C 80.000 295.073,78.925 294.000,78.625 294.000 C 78.498 294.000,78.618 294.360,78.893 294.800 M360.400 294.800 C 360.400 295.240,360.220 295.600,360.000 295.600 C 359.780 295.600,359.600 295.960,359.600 296.400 C 359.600 296.840,359.780 297.200,360.000 297.200 C 360.220 297.200,360.400 296.840,360.400 296.400 C 360.400 295.960,360.580 295.600,360.800 295.600 C 361.020 295.600,361.200 295.240,361.200 294.800 C 361.200 294.360,361.020 294.000,360.800 294.000 C 360.580 294.000,360.400 294.360,360.400 294.800 M80.000 296.629 C 80.000 297.053,81.236 298.097,81.467 297.867 C 81.592 297.741,81.417 297.360,81.076 297.019 C 80.441 296.384,80.000 296.224,80.000 296.629 M81.600 299.029 C 81.600 299.453,82.836 300.497,83.067 300.267 C 83.192 300.141,83.017 299.760,82.676 299.419 C 82.041 298.784,81.600 298.624,81.600 299.029 M357.158 300.534 C 356.805 300.792,356.402 301.452,356.262 302.002 C 356.122 302.551,356.111 302.775,356.237 302.500 C 356.363 302.225,356.710 302.000,357.006 302.000 C 357.303 302.000,357.665 301.626,357.810 301.170 C 358.144 300.116,357.966 299.943,357.158 300.534 M83.200 301.229 C 83.200 301.780,84.372 302.961,84.647 302.687 C 84.906 302.427,83.920 300.800,83.504 300.800 C 83.337 300.800,83.200 300.993,83.200 301.229 M84.800 303.829 C 84.800 304.125,85.875 305.200,86.171 305.200 C 86.689 305.200,86.352 304.067,85.767 303.843 C 84.981 303.541,84.800 303.538,84.800 303.829 M86.400 305.938 C 86.400 306.124,86.760 306.602,87.200 307.000 C 88.126 307.838,88.335 307.078,87.429 306.171 C 86.783 305.526,86.400 305.439,86.400 305.938 M350.812 307.184 C 350.488 307.389,350.378 307.701,350.566 307.878 C 350.755 308.055,350.990 307.974,351.089 307.698 C 351.188 307.421,351.433 307.297,351.634 307.421 C 351.835 307.545,352.000 307.457,352.000 307.224 C 352.000 306.705,351.591 306.692,350.812 307.184 M88.267 308.267 C 88.147 308.387,88.498 308.935,89.048 309.485 C 89.598 310.035,90.147 310.387,90.267 310.267 C 90.387 310.147,90.035 309.598,89.485 309.048 C 88.935 308.498,88.387 308.147,88.267 308.267 M344.000 310.800 C 344.000 311.020,344.360 311.200,344.800 311.200 C 345.240 311.200,345.600 311.020,345.600 310.800 C 345.600 310.580,345.240 310.400,344.800 310.400 C 344.360 310.400,344.000 310.580,344.000 310.800 M90.400 311.429 C 90.400 311.853,91.636 312.897,91.867 312.667 C 91.992 312.541,91.817 312.160,91.476 311.819 C 90.841 311.184,90.400 311.024,90.400 311.429 M338.800 313.200 C 338.800 313.420,339.059 313.600,339.376 313.600 C 339.693 313.600,340.064 313.420,340.200 313.200 C 340.336 312.980,340.077 312.800,339.624 312.800 C 339.171 312.800,338.800 312.980,338.800 313.200 M92.000 313.951 C 92.000 314.453,93.174 315.360,93.457 315.076 C 93.588 314.945,93.417 314.560,93.076 314.219 C 92.381 313.524,92.000 313.429,92.000 313.951 M336.800 314.000 C 336.800 314.220,337.070 314.400,337.400 314.400 C 337.730 314.400,338.000 314.220,338.000 314.000 C 338.000 313.780,337.730 313.600,337.400 313.600 C 337.070 313.600,336.800 313.780,336.800 314.000 M334.400 314.800 C 334.400 315.020,334.749 315.200,335.176 315.200 C 335.603 315.200,336.064 315.020,336.200 314.800 C 336.340 314.573,336.004 314.400,335.424 314.400 C 334.861 314.400,334.400 314.580,334.400 314.800 M331.800 315.600 C 331.936 315.820,332.296 316.000,332.600 316.000 C 332.904 316.000,333.264 315.820,333.400 315.600 C 333.541 315.372,333.196 315.200,332.600 315.200 C 332.004 315.200,331.659 315.372,331.800 315.600 M93.645 316.200 C 93.621 316.730,95.164 318.569,95.419 318.314 C 95.770 317.963,95.134 316.800,94.591 316.800 C 94.302 316.800,93.976 316.575,93.865 316.300 C 93.754 316.025,93.655 315.980,93.645 316.200 M328.000 316.400 C 328.000 316.620,328.529 316.800,329.176 316.800 C 329.823 316.800,330.464 316.620,330.600 316.400 C 330.747 316.162,330.271 316.000,329.424 316.000 C 328.641 316.000,328.000 316.180,328.000 316.400 M323.600 317.200 C 323.600 317.420,324.140 317.600,324.800 317.600 C 325.460 317.600,326.000 317.420,326.000 317.200 C 326.000 316.980,325.460 316.800,324.800 316.800 C 324.140 316.800,323.600 316.980,323.600 317.200 M316.800 318.000 C 316.800 318.220,317.689 318.400,318.776 318.400 C 319.863 318.400,320.864 318.220,321.000 318.000 C 321.153 317.752,320.404 317.600,319.024 317.600 C 317.801 317.600,316.800 317.780,316.800 318.000 M311.200 322.200 C 311.200 324.467,311.361 326.000,311.600 326.000 C 311.839 326.000,312.000 324.467,312.000 322.200 C 312.000 319.933,311.839 318.400,311.600 318.400 C 311.361 318.400,311.200 319.933,311.200 322.200 M96.619 320.419 C 97.344 321.176,97.849 321.453,97.950 321.149 C 98.040 320.880,97.708 320.331,97.212 319.930 C 95.759 318.753,95.347 319.092,96.619 320.419 M98.800 323.029 C 98.800 323.453,100.036 324.497,100.267 324.267 C 100.392 324.141,100.217 323.760,99.876 323.419 C 99.241 322.784,98.800 322.624,98.800 323.029 M100.400 326.200 C 100.400 326.530,100.580 326.800,100.800 326.800 C 101.020 326.800,101.200 326.530,101.200 326.200 C 101.200 325.870,101.020 325.600,100.800 325.600 C 100.580 325.600,100.400 325.870,100.400 326.200 M101.200 327.829 C 101.200 328.253,102.436 329.297,102.667 329.067 C 102.792 328.941,102.617 328.560,102.276 328.219 C 101.641 327.584,101.200 327.424,101.200 327.829 M310.400 328.400 C 310.400 328.840,310.580 329.200,310.800 329.200 C 311.020 329.200,311.200 328.840,311.200 328.400 C 311.200 327.960,311.020 327.600,310.800 327.600 C 310.580 327.600,310.400 327.960,310.400 328.400 M103.251 330.698 C 104.286 332.015,104.838 332.495,105.061 332.272 C 105.184 332.149,104.824 331.588,104.261 331.024 C 103.098 329.862,102.422 329.643,103.251 330.698 M309.600 330.800 C 309.600 331.240,309.420 331.600,309.200 331.600 C 308.980 331.600,308.800 331.945,308.800 332.367 C 308.800 332.788,308.575 333.214,308.300 333.312 C 308.025 333.410,307.926 333.627,308.081 333.793 C 308.451 334.191,309.600 333.026,309.600 332.252 C 309.600 331.919,309.780 331.536,310.000 331.400 C 310.220 331.264,310.400 330.893,310.400 330.576 C 310.400 330.259,310.220 330.000,310.000 330.000 C 309.780 330.000,309.600 330.360,309.600 330.800 M105.200 333.429 C 105.200 333.853,106.436 334.897,106.667 334.667 C 106.792 334.541,106.617 334.160,106.276 333.819 C 105.641 333.184,105.200 333.024,105.200 333.429 M106.800 335.818 C 106.800 336.102,108.698 338.000,108.982 338.000 C 109.437 338.000,109.170 337.319,108.384 336.475 C 107.624 335.659,106.800 335.318,106.800 335.818 M250.413 338.067 C 250.425 339.331,250.456 339.360,251.018 338.616 C 251.666 337.760,251.614 337.138,250.875 336.892 C 250.570 336.790,250.405 337.211,250.413 338.067 M304.234 338.869 C 302.255 341.181,302.776 341.298,305.052 339.053 C 306.238 337.884,306.698 337.200,306.297 337.200 C 305.948 337.200,305.019 337.951,304.234 338.869 M255.275 339.625 C 255.371 339.914,255.686 340.229,255.975 340.325 C 256.275 340.425,256.425 340.275,256.325 339.975 C 256.229 339.686,255.914 339.371,255.625 339.275 C 255.325 339.175,255.175 339.325,255.275 339.625 M257.200 340.400 C 256.715 340.714,256.772 340.789,257.500 340.794 C 257.995 340.797,258.400 340.620,258.400 340.400 C 258.400 339.899,257.976 339.899,257.200 340.400 M249.600 341.600 C 249.600 342.040,249.780 342.400,250.000 342.400 C 250.220 342.400,250.400 342.040,250.400 341.600 C 250.400 341.160,250.220 340.800,250.000 340.800 C 249.780 340.800,249.600 341.160,249.600 341.600 M300.630 341.624 C 300.159 342.098,300.054 342.400,300.359 342.400 C 300.863 342.400,302.000 341.450,302.000 341.029 C 302.000 340.590,301.394 340.853,300.630 341.624 M112.400 341.370 C 112.400 341.626,114.712 344.000,114.960 344.000 C 115.816 344.000,114.279 341.922,113.100 341.485 C 112.715 341.342,112.400 341.290,112.400 341.370 M260.400 342.000 C 260.400 342.220,260.850 342.400,261.400 342.400 C 261.950 342.400,262.400 342.220,262.400 342.000 C 262.400 341.780,261.950 341.600,261.400 341.600 C 260.850 341.600,260.400 341.780,260.400 342.000 M262.800 342.800 C 262.800 343.020,263.070 343.200,263.400 343.200 C 263.730 343.200,264.000 343.020,264.000 342.800 C 264.000 342.580,263.730 342.400,263.400 342.400 C 263.070 342.400,262.800 342.580,262.800 342.800 M298.000 342.800 C 298.000 343.020,298.259 343.200,298.576 343.200 C 298.893 343.200,299.264 343.020,299.400 342.800 C 299.536 342.580,299.277 342.400,298.824 342.400 C 298.371 342.400,298.000 342.580,298.000 342.800 M264.600 343.600 C 264.736 343.820,265.197 344.000,265.624 344.000 C 266.051 344.000,266.400 343.820,266.400 343.600 C 266.400 343.380,265.939 343.200,265.376 343.200 C 264.796 343.200,264.460 343.373,264.600 343.600 M296.000 343.600 C 296.000 343.820,296.270 344.000,296.600 344.000 C 296.930 344.000,297.200 343.820,297.200 343.600 C 297.200 343.380,296.930 343.200,296.600 343.200 C 296.270 343.200,296.000 343.380,296.000 343.600 M116.000 344.229 C 116.000 344.653,117.236 345.697,117.467 345.467 C 117.592 345.341,117.417 344.960,117.076 344.619 C 116.441 343.984,116.000 343.824,116.000 344.229 M198.000 344.400 C 198.000 344.620,198.360 344.800,198.800 344.800 C 199.240 344.800,199.600 344.620,199.600 344.400 C 199.600 344.180,199.240 344.000,198.800 344.000 C 198.360 344.000,198.000 344.180,198.000 344.400 M266.800 344.400 C 266.800 344.620,267.250 344.800,267.800 344.800 C 268.350 344.800,268.800 344.620,268.800 344.400 C 268.800 344.180,268.350 344.000,267.800 344.000 C 267.250 344.000,266.800 344.180,266.800 344.400 M293.200 344.400 C 293.200 344.620,293.560 344.800,294.000 344.800 C 294.440 344.800,294.800 344.620,294.800 344.400 C 294.800 344.180,294.440 344.000,294.000 344.000 C 293.560 344.000,293.200 344.180,293.200 344.400 M246.063 347.059 C 244.887 348.269,244.019 349.353,244.134 349.467 C 244.340 349.673,248.800 345.411,248.800 345.009 C 248.800 344.460,248.022 345.043,246.063 347.059 M270.000 345.200 C 270.000 345.420,270.360 345.600,270.800 345.600 C 271.240 345.600,271.600 345.420,271.600 345.200 C 271.600 344.980,271.240 344.800,270.800 344.800 C 270.360 344.800,270.000 344.980,270.000 345.200 M289.400 345.200 C 289.536 345.420,290.087 345.600,290.624 345.600 C 291.161 345.600,291.600 345.420,291.600 345.200 C 291.600 344.980,291.049 344.800,290.376 344.800 C 289.663 344.800,289.256 344.967,289.400 345.200 M273.200 346.000 C 273.200 346.220,274.010 346.400,275.000 346.400 C 275.990 346.400,276.800 346.220,276.800 346.000 C 276.800 345.780,275.990 345.600,275.000 345.600 C 274.010 345.600,273.200 345.780,273.200 346.000 M282.800 346.000 C 282.800 346.220,283.689 346.400,284.776 346.400 C 285.863 346.400,286.864 346.220,287.000 346.000 C 287.153 345.752,286.404 345.600,285.024 345.600 C 283.801 345.600,282.800 345.780,282.800 346.000 M120.000 346.629 C 120.000 347.053,121.236 348.097,121.467 347.867 C 121.592 347.741,121.417 347.360,121.076 347.019 C 120.441 346.384,120.000 346.224,120.000 346.629 M193.663 350.259 C 192.487 351.469,191.619 352.553,191.734 352.667 C 191.940 352.873,196.400 348.611,196.400 348.209 C 196.400 347.660,195.622 348.243,193.663 350.259 M124.000 349.029 C 124.000 349.453,125.236 350.497,125.467 350.267 C 125.592 350.141,125.417 349.760,125.076 349.419 C 124.441 348.784,124.000 348.624,124.000 349.029 M209.000 350.000 C 209.136 350.220,209.507 350.400,209.824 350.400 C 210.141 350.400,210.400 350.220,210.400 350.000 C 210.400 349.780,210.029 349.600,209.576 349.600 C 209.123 349.600,208.864 349.780,209.000 350.000 M126.000 350.800 C 126.000 351.020,126.270 351.200,126.600 351.200 C 126.930 351.200,127.200 351.020,127.200 350.800 C 127.200 350.580,126.930 350.400,126.600 350.400 C 126.270 350.400,126.000 350.580,126.000 350.800 M211.200 350.800 C 211.200 351.020,211.650 351.200,212.200 351.200 C 212.750 351.200,213.200 351.020,213.200 350.800 C 213.200 350.580,212.750 350.400,212.200 350.400 C 211.650 350.400,211.200 350.580,211.200 350.800 M128.093 352.000 C 128.547 352.726,129.600 353.126,129.600 352.571 C 129.600 352.177,128.478 351.200,128.025 351.200 C 127.738 351.200,127.761 351.469,128.093 352.000 M214.400 351.600 C 214.400 351.820,215.030 352.000,215.800 352.000 C 216.570 352.000,217.200 351.820,217.200 351.600 C 217.200 351.380,216.570 351.200,215.800 351.200 C 215.030 351.200,214.400 351.380,214.400 351.600 M238.400 351.600 C 238.400 351.820,238.760 352.000,239.200 352.000 C 239.640 352.000,240.000 351.820,240.000 351.600 C 240.000 351.380,239.640 351.200,239.200 351.200 C 238.760 351.200,238.400 351.380,238.400 351.600 M220.200 352.400 C 220.336 352.620,221.877 352.800,223.624 352.800 C 225.475 352.800,226.800 352.633,226.800 352.400 C 226.800 352.164,225.392 352.000,223.376 352.000 C 221.196 352.000,220.043 352.145,220.200 352.400 M233.200 352.400 C 233.200 352.620,233.999 352.800,234.976 352.800 C 235.953 352.800,236.864 352.620,237.000 352.400 C 237.152 352.153,236.471 352.000,235.224 352.000 C 234.111 352.000,233.200 352.180,233.200 352.400 M130.256 352.678 C 129.805 353.128,129.981 353.600,130.600 353.600 C 130.930 353.600,131.200 353.431,131.200 353.224 C 131.200 352.719,130.575 352.358,130.256 352.678 M189.071 354.025 C 188.151 355.099,188.227 355.262,189.400 354.727 C 190.421 354.262,190.659 353.807,190.071 353.444 C 189.891 353.332,189.441 353.594,189.071 354.025 M186.800 355.400 C 186.800 355.730,187.070 356.000,187.400 356.000 C 187.730 356.000,188.000 355.730,188.000 355.400 C 188.000 355.070,187.730 354.800,187.400 354.800 C 187.070 354.800,186.800 355.070,186.800 355.400 M134.400 355.390 C 134.400 355.592,136.610 356.800,136.980 356.800 C 137.101 356.800,137.200 356.518,137.200 356.173 C 137.200 355.728,136.968 355.620,136.400 355.800 C 135.941 355.946,135.600 355.872,135.600 355.627 C 135.600 355.392,135.330 355.200,135.000 355.200 C 134.670 355.200,134.400 355.285,134.400 355.390 M185.456 355.878 C 185.005 356.328,185.181 356.800,185.800 356.800 C 186.130 356.800,186.400 356.631,186.400 356.424 C 186.400 355.919,185.775 355.558,185.456 355.878 M183.677 356.830 C 183.756 357.067,183.991 357.260,184.200 357.260 C 184.409 357.260,184.644 357.067,184.723 356.830 C 184.802 356.594,184.567 356.400,184.200 356.400 C 183.833 356.400,183.598 356.594,183.677 356.830 M181.600 357.600 C 181.600 357.820,181.971 358.000,182.424 358.000 C 182.877 358.000,183.136 357.820,183.000 357.600 C 182.864 357.380,182.493 357.200,182.176 357.200 C 181.859 357.200,181.600 357.380,181.600 357.600 M179.200 358.400 C 179.200 358.620,179.560 358.800,180.000 358.800 C 180.440 358.800,180.800 358.620,180.800 358.400 C 180.800 358.180,180.440 358.000,180.000 358.000 C 179.560 358.000,179.200 358.180,179.200 358.400 M143.800 359.200 C 143.936 359.420,144.307 359.600,144.624 359.600 C 144.941 359.600,145.200 359.420,145.200 359.200 C 145.200 358.980,144.829 358.800,144.376 358.800 C 143.923 358.800,143.664 358.980,143.800 359.200 M176.400 359.200 C 176.400 359.420,176.670 359.600,177.000 359.600 C 177.330 359.600,177.600 359.420,177.600 359.200 C 177.600 358.980,177.330 358.800,177.000 358.800 C 176.670 358.800,176.400 358.980,176.400 359.200 M146.400 360.000 C 146.400 360.220,146.850 360.400,147.400 360.400 C 147.950 360.400,148.400 360.220,148.400 360.000 C 148.400 359.780,147.950 359.600,147.400 359.600 C 146.850 359.600,146.400 359.780,146.400 360.000 M172.800 360.000 C 172.800 360.220,173.340 360.400,174.000 360.400 C 174.660 360.400,175.200 360.220,175.200 360.000 C 175.200 359.780,174.660 359.600,174.000 359.600 C 173.340 359.600,172.800 359.780,172.800 360.000 M150.000 360.800 C 150.791 361.311,153.200 361.311,153.200 360.800 C 153.200 360.580,152.345 360.403,151.300 360.406 C 149.926 360.411,149.566 360.520,150.000 360.800 M167.600 360.800 C 167.600 361.020,168.410 361.200,169.400 361.200 C 170.390 361.200,171.200 361.020,171.200 360.800 C 171.200 360.580,170.390 360.400,169.400 360.400 C 168.410 360.400,167.600 360.580,167.600 360.800 " stroke="none" fill="#fbfbfb" fill-rule="evenodd"></path></g></svg>